<svg width="1053" height="486" viewBox="0 0 1053 486" fill="none" xmlns="http://www.w3.org/2000/svg">
<rect x="272" y="84" width="366" height="379" fill="#223999" fill-opacity="0.25"/>
<rect x="231.5" y="124.5" width="254" height="301" stroke="#109EB1"/>
<rect x="709.5" y="112.5" width="343" height="320" stroke="#109EB1"/>
<rect x="393" y="102" width="366" height="341" fill="#8197F2" fill-opacity="0.25"/>
<rect x="0.5" y="129.5" width="142" height="291" fill="#223999" fill-opacity="0.25" stroke="#109EB1"/>
<rect x="532" y="131" width="326" height="284" fill="#126C95"/>
<path d="M851.176 103.152C853.288 103.152 855.048 102.544 856.456 101.328C857.8 100.048 858.472 98.224 858.472 95.856C858.472 93.552 857.8 91.76 856.456 90.48C855.048 89.2 853.288 88.56 851.176 88.56C849.128 88.56 847.4 89.2 845.992 90.48C844.584 91.76 843.88 93.552 843.88 95.856C843.88 98.224 844.584 100.048 845.992 101.328C847.4 102.544 849.128 103.152 851.176 103.152ZM797.082 103.152C799.194 103.152 800.954 102.544 802.362 101.328C803.706 100.048 804.378 98.224 804.378 95.856C804.378 93.552 803.706 91.76 802.362 90.48C800.954 89.2 799.194 88.56 797.082 88.56C795.034 88.56 793.306 89.2 791.898 90.48C790.49 91.76 789.786 93.552 789.786 95.856C789.786 98.224 790.49 100.048 791.898 101.328C793.306 102.544 795.034 103.152 797.082 103.152ZM742.988 103.152C745.1 103.152 746.86 102.544 748.268 101.328C749.612 100.048 750.284 98.224 750.284 95.856C750.284 93.552 749.612 91.76 748.268 90.48C746.86 89.2 745.1 88.56 742.988 88.56C740.94 88.56 739.212 89.2 737.804 90.48C736.396 91.76 735.692 93.552 735.692 95.856C735.692 98.224 736.396 100.048 737.804 101.328C739.212 102.544 740.94 103.152 742.988 103.152ZM688.895 103.152C691.007 103.152 692.767 102.544 694.175 101.328C695.519 100.048 696.191 98.224 696.191 95.856C696.191 93.552 695.519 91.76 694.175 90.48C692.767 89.2 691.007 88.56 688.895 88.56C686.847 88.56 685.119 89.2 683.711 90.48C682.303 91.76 681.599 93.552 681.599 95.856C681.599 98.224 682.303 100.048 683.711 101.328C685.119 102.544 686.847 103.152 688.895 103.152ZM634.801 103.152C636.913 103.152 638.673 102.544 640.081 101.328C641.425 100.048 642.097 98.224 642.097 95.856C642.097 93.552 641.425 91.76 640.081 90.48C638.673 89.2 636.913 88.56 634.801 88.56C632.753 88.56 631.025 89.2 629.617 90.48C628.209 91.76 627.505 93.552 627.505 95.856C627.505 98.224 628.209 100.048 629.617 101.328C631.025 102.544 632.753 103.152 634.801 103.152Z" fill="white"/>
<path d="M272.176 458.152C274.288 458.152 276.048 457.544 277.456 456.328C278.8 455.048 279.472 453.224 279.472 450.856C279.472 448.552 278.8 446.76 277.456 445.48C276.048 444.2 274.288 443.56 272.176 443.56C270.128 443.56 268.4 444.2 266.992 445.48C265.584 446.76 264.88 448.552 264.88 450.856C264.88 453.224 265.584 455.048 266.992 456.328C268.4 457.544 270.128 458.152 272.176 458.152ZM218.082 458.152C220.194 458.152 221.954 457.544 223.362 456.328C224.706 455.048 225.378 453.224 225.378 450.856C225.378 448.552 224.706 446.76 223.362 445.48C221.954 444.2 220.194 443.56 218.082 443.56C216.034 443.56 214.306 444.2 212.898 445.48C211.49 446.76 210.786 448.552 210.786 450.856C210.786 453.224 211.49 455.048 212.898 456.328C214.306 457.544 216.034 458.152 218.082 458.152ZM163.988 458.152C166.1 458.152 167.86 457.544 169.268 456.328C170.612 455.048 171.284 453.224 171.284 450.856C171.284 448.552 170.612 446.76 169.268 445.48C167.86 444.2 166.1 443.56 163.988 443.56C161.94 443.56 160.212 444.2 158.804 445.48C157.396 446.76 156.692 448.552 156.692 450.856C156.692 453.224 157.396 455.048 158.804 456.328C160.212 457.544 161.94 458.152 163.988 458.152ZM109.895 458.152C112.007 458.152 113.767 457.544 115.175 456.328C116.519 455.048 117.191 453.224 117.191 450.856C117.191 448.552 116.519 446.76 115.175 445.48C113.767 444.2 112.007 443.56 109.895 443.56C107.847 443.56 106.119 444.2 104.711 445.48C103.303 446.76 102.599 448.552 102.599 450.856C102.599 453.224 103.303 455.048 104.711 456.328C106.119 457.544 107.847 458.152 109.895 458.152ZM55.8009 458.152C57.9129 458.152 59.6729 457.544 61.0809 456.328C62.4249 455.048 63.0969 453.224 63.0969 450.856C63.0969 448.552 62.4249 446.76 61.0809 445.48C59.6729 444.2 57.9129 443.56 55.8009 443.56C53.7529 443.56 52.0249 444.2 50.6169 445.48C49.2089 446.76 48.5049 448.552 48.5049 450.856C48.5049 453.224 49.2089 455.048 50.6169 456.328C52.0249 457.544 53.7529 458.152 55.8009 458.152Z" fill="white"/>
</svg>
