<?xml version="1.0" encoding="UTF-8"?>
<!DOCTYPE svg PUBLIC "-//W3C//DTD SVG 1.1//EN" "http://www.w3.org/Graphics/SVG/1.1/DTD/svg11.dtd">
<!-- Creator: CorelDRAW (Evaluation Version) -->
<svg xmlns="http://www.w3.org/2000/svg" xml:space="preserve" width="210mm" height="297mm" version="1.1" style="shape-rendering:geometricPrecision; text-rendering:geometricPrecision; image-rendering:optimizeQuality; fill-rule:evenodd; clip-rule:evenodd"
viewBox="0 0 21000 29700"
 xmlns:xlink="http://www.w3.org/1999/xlink"
 xmlns:xodm="http://www.corel.com/coreldraw/odm/2003">
 <defs>
  <style type="text/css">
   <![CDATA[
    .str0 {stroke:black;stroke-width:50;stroke-miterlimit:22.9256}
    .str2 {stroke:black;stroke-width:20;stroke-miterlimit:22.9256}
    .str1 {stroke:black;stroke-width:10;stroke-miterlimit:22.9256}
    .str3 {stroke:#183860;stroke-width:10;stroke-miterlimit:22.9256}
    .str4 {stroke:white;stroke-width:10;stroke-miterlimit:22.9256}
    .fil3 {fill:none}
    .fil5 {fill:#183860}
    .fil7 {fill:#223468}
    .fil0 {fill:#223468}
    .fil12 {fill:#2C3F67}
    .fil15 {fill:#737E98}
    .fil16 {fill:#A4ACBB}
    .fil17 {fill:#B4BAC4}
    .fil14 {fill:#E9EDED}
    .fil9 {fill:#FCB717}
    .fil2 {fill:#FCB717}
    .fil6 {fill:#FEFFFE}
    .fil1 {fill:white}
    .fil13 {fill:white}
    .fil18 {fill:white}
    .fil10 {fill:#223468;fill-rule:nonzero}
    .fil4 {fill:url(#id4)}
    .fil11 {fill:url(#id5)}
    .fil8 {fill:url(#id6)}
   ]]>
  </style>
    <clipPath id="id0">
     <path d="M1724.67 18994.49l15973.75 0 0 5273.1 -11174.15 -34.19c-2261.47,-1560.19 -3631.54,-3372.49 -4799.6,-5238.91z"/>
    </clipPath>
    <clipPath id="id1">
     <path d="M7563.07 13719.08c-3616.99,-2024.68 -5896.25,-4762.39 -4965.15,-8877.98 98.65,-32.58 -896.37,1347.38 -1639.83,5462.56 -91.94,509.07 969.98,4673.39 6622.92,5948.75l-17.94 -2533.33z"/>
    </clipPath>
    <clipPath id="id2">
     <path d="M7560.39 17157.67c-4602.82,-1258.33 -6439.1,-3658.75 -6995.74,-5482.28 -458.6,500.25 447.06,6673.17 973.34,6673.66l6040.36 5.99 -17.96 -1197.37z"/>
    </clipPath>
    <clipPath id="id3">
     <path d="M7542.99 17162.86c-2904.53,-855.22 -5814.55,-2536.87 -6978.33,-5487.47 -542.29,550.83 483.3,6558.87 965.16,6672.87l6030.05 4.79 -16.88 -1190.19z"/>
    </clipPath>
  <linearGradient id="id4" gradientUnits="userSpaceOnUse" x1="3080.24" y1="13654.86" x2="20556.03" y2="13654.86">
   <stop offset="0" style="stop-opacity:1; stop-color:#223468"/>
   <stop offset="0.470588" style="stop-opacity:1; stop-color:#2B4E76"/>
   <stop offset="1" style="stop-opacity:1; stop-color:#346985"/>
  </linearGradient>
  <linearGradient id="id5" gradientUnits="userSpaceOnUse" x1="410.52" y1="15014.22" x2="7559.87" y2="15014.22">
   <stop offset="0" style="stop-opacity:1; stop-color:#223468"/>
   <stop offset="0.0509804" style="stop-opacity:1; stop-color:#294A74"/>
   <stop offset="1" style="stop-opacity:1; stop-color:#316180"/>
  </linearGradient>
  <linearGradient id="id6" gradientUnits="userSpaceOnUse" x1="619.98" y1="15273.03" x2="7378.29" y2="14759.81">
   <stop offset="0" style="stop-opacity:1; stop-color:#758690"/>
   <stop offset="0.388235" style="stop-opacity:1; stop-color:#8496A2"/>
   <stop offset="1" style="stop-opacity:1; stop-color:#93A6B5"/>
  </linearGradient>
 </defs>
 <g id="Layer_x0020_1">
  <metadata id="CorelCorpID_0Corel-Layer"/>
  <g id="_1179397456">
   <path class="fil0" d="M1724.67 18994.49l15973.75 0 0 5273.1 -11174.15 -34.19c-2261.47,-1560.19 -3631.54,-3372.49 -4799.6,-5238.91z"/>
   <g style="clip-path:url(#id0)">
    <g>
     <path id="_1" class="fil1 str0" d="M5821.12 21781.58c0,-1234.96 2550.64,-1373.52 2550.64,0l0 2486.02 -2550.64 0 0 -2486.02z"/>
     <path class="fil1 str0" d="M11064.1 21807.41c0,-1222.13 2550.64,-1359.25 2550.64,0l0 2460.18 -2550.64 0 0 -2460.18z"/>
     <path class="fil1 str0" d="M16319.98 21790.91c0,-1230.32 2550.64,-1368.36 2550.64,0l0 2476.67 -2550.64 0 0 -2476.67z"/>
     <rect class="fil2 str1" x="1881.35" y="19191.47" width="14674.54" height="357.84"/>
    </g>
   </g>
   <path class="fil3 str1" d="M1724.67 18994.49l15973.75 0 0 5273.1 -11174.15 -34.19c-2261.47,-1560.19 -3631.54,-3372.49 -4799.6,-5238.91z"/>
   <path class="fil4 str1" d="M3883.69 1035.73c0,0 -3284.58,6963.14 3428.87,11683.81 1897.44,1334.22 3818.72,2479.19 5751.4,3458.1 4511.21,2787.14 4377.77,5164.66 -98.81,7278.89 -2277.94,812.1 -4420.04,739.27 -6405.86,800.52 2536.25,1676.39 7861.71,3257.26 11281.29,582.58 4091.96,-3200.62 3126,-7155.54 -32.5,-9837.08 -1075.2,-912.85 -7384.9,-5430.07 -7384.9,-5430.07 -5352.78,-3736.02 -6539.49,-8536.75 -6539.49,-8536.75z"/>
   <g>
    <polygon class="fil5 str1" points="8364.43,18427.16 8367.81,16614.18 10228.28,15344.63 12143.27,16654.39 12705.47,18425.13 "/>
    <polygon class="fil2 str2" points="10242.53,18253.92 10252.86,15650.25 11910.83,16793.71 12265.3,18261.34 "/>
    <g>
     <rect class="fil6" transform="matrix(3.75111 0.0259453 -2.03219E-002 2.93809 8792.71 16827.6)" width="102.11" height="99.06" rx="10" ry="10"/>
     <rect class="fil6" transform="matrix(3.75111 0.0259453 -2.03219E-002 2.93809 8795.4 17281.5)" width="102.11" height="99.06" rx="10" ry="10"/>
     <rect class="fil6" transform="matrix(3.75111 0.0259453 -2.03219E-002 2.93809 8803.95 17740)" width="102.11" height="99.06" rx="10" ry="10"/>
     <rect class="fil6" transform="matrix(3.07935 0.0212989 -2.03219E-002 2.93809 9378.58 16753.7)" width="102.11" height="99.06" rx="10" ry="10"/>
     <rect class="fil6" transform="matrix(3.07935 0.0212989 -2.03219E-002 2.93809 9397.99 17212.3)" width="102.11" height="99.06" rx="10" ry="10"/>
     <rect class="fil6" transform="matrix(3.07935 0.0212989 -2.03219E-002 2.93809 9412.31 17680.1)" width="102.11" height="99.06" rx="10" ry="10"/>
    </g>
    <rect class="fil7 str3" transform="matrix(2.91774 0.0201811 -1.96592E-002 2.84228 10499.4 16964.8)" width="159.57" height="411.02"/>
    <rect class="fil7 str3" transform="matrix(2.91774 0.0201811 -1.96592E-002 2.84228 11247 16971.3)" width="159.57" height="411.02"/>
   </g>
   <polygon class="fil1 str4" points="9826.67,15299.2 10533.51,15325.51 10736.62,15669.89 10299.03,15725.42 10656.31,16094.07 10357.21,16211.47 10543.34,16804.33 10268.76,16907.52 10244.85,17847.92 9999.29,16923.95 10244.58,16781.87 9907.18,16209.83 10184.44,16061.38 9745.9,15731.29 10097.72,15657.45 "/>
   <path class="fil7" d="M7563.07 13719.08c-3616.99,-2024.68 -5896.25,-4762.39 -4965.15,-8877.98 98.65,-32.58 -896.37,1347.38 -1639.83,5462.56 -91.94,509.07 969.98,4673.39 6622.92,5948.75l-17.94 -2533.33z"/>
   <g style="clip-path:url(#id1)">
    <g>
     <g>
      <polygon id="_1_2" class="fil1 str1" points="3590.83,8661.93 3804.68,8647.55 3864.1,9242.65 3651.99,9255.08 "/>
      <polygon class="fil1 str1" points="2316.8,9165.17 2280.67,8882.11 3512.5,8790.33 3542.71,9072.44 "/>
      <polygon class="fil1 str1" points="2029.09,9358.09 1975.58,8757.96 2201.8,8743.76 2264.12,9344.78 "/>
      <path class="fil1 str1" d="M1522.91 8620.81c-2.92,203.56 145.74,289.59 410.01,286.19l29.16 297.71c-506.43,5.37 -780.63,-183 -829.15,-559.6l389.98 -24.3z"/>
      <polygon class="fil1 str1" points="912.2,8437.25 1666.61,8376.53 1696.45,8560.66 924.27,8610.22 "/>
      <polygon class="fil1 str1" points="992,7582.34 1380.75,7554.38 1455.73,8344.4 1070.68,8366.4 "/>
      <polygon class="fil1 str1" points="779.69,7535.13 766.94,7366.88 1524.88,7320.6 1535.18,7487.49 "/>
     </g>
     <g>
      <polygon class="fil1 str1" points="1089.68,9736.35 900.11,9744.75 903.53,10639.19 1091.39,10628.11 "/>
      <polygon class="fil1 str1" points="2258.19,10308.07 2263.48,9881.53 1170.65,9916.63 1170.47,10340.91 "/>
      <polygon class="fil1 str1" points="2529.49,10555.23 2520.39,9654.14 2319.95,9664.53 2321.38,10568.18 "/>
      <path class="fil1 str1" d="M2905.98 9386.79c21.63,302.71 -101.16,451.54 -334.08,483.33l2.21 447.37c446.25,-62.62 669.96,-381.34 677.4,-948.89l-345.53 18.19z"/>
      <polygon class="fil1 str1" points="3276.03,7766.42 2931.24,7778.99 2939.22,8965.83 3280.2,8944.91 "/>
      <polygon class="fil1 str1" points="3458.49,7666.52 3453.95,7414.2 2782.49,7450.97 2789.05,7700.91 "/>
     </g>
     <g>
      <g>
       <polygon class="fil1 str1" points="950.38,10875.89 728.34,10887 743.71,11651.58 963.72,11638.22 "/>
       <polygon class="fil1 str1" points="2668.57,11369.53 2669.17,11004.78 1017.3,11066.37 1024.39,11429.05 "/>
       <polygon class="fil1 str1" points="2947.39,11537.4 2943.47,10766.81 2725.36,10779.43 2736.35,11551.98 "/>
      </g>
      <polygon class="fil1 str1" points="4376.07,11289.24 4390.05,10924.86 3034.42,10979.17 3021.36,11324.38 "/>
     </g>
     <g>
      <polygon class="fil1 str1" points="3405.12,13759.92 3563.99,13753.38 3562.94,14748.84 3405.5,14752.26 "/>
      <polygon class="fil1 str1" points="2427.12,14493.98 2421.82,14019.85 3337.64,13967.29 3338.65,14439.34 "/>
      <polygon class="fil1 str1" points="2200.29,14791.72 2206.07,13788.38 2374.06,13783.14 2374.7,14788.68 "/>
      <path class="fil1 str1" d="M1882.43 13523.24c-17.52,338.61 85.68,493.92 280.92,509.76l-0.94 497.95c-374.07,-32.27 -562.17,-368.14 -569.57,-998.99l289.59 -8.72z"/>
      <polygon class="fil1 str1" points="1445.66,13168.01 2006.88,13128.3 2015.01,13437.24 1441.52,13456.92 "/>
      <polygon class="fil1 str1" points="1588.83,11065.44 1859.37,11041.28 1843.77,12956.47 1576.29,12966.67 "/>
     </g>
     <g>
      <polygon class="fil1 str1" points="1322.23,12327.14 1175.09,12334.66 1177.84,13136.34 1323.65,13126.43 "/>
      <polygon class="fil1 str1" points="2229.19,12839.65 2233.26,12457.34 1385.09,12488.73 1384.99,12869.02 "/>
      <polygon class="fil1 str1" points="2458.82,13062.33 2451.66,12254.67 2296.09,12263.98 2297.3,13073.92 "/>
      <path class="fil1 str1" d="M2764.71 11997.31c80.15,309.95 -20.14,445.47 -227.48,441.82l1.54 408.98c398.26,-157.75 590.49,-488.39 461.26,-867.39l-235.32 16.59z"/>
      <polygon class="fil1 str1" points="3130.41,11660.9 2610.64,11674.09 2603.66,11923.58 3134.77,11893.26 "/>
     </g>
     <g>
      <polygon class="fil1 str1" points="5974.63,16048.9 5345.1,16034.59 5340.96,16328.2 5971.83,16353.82 "/>
      <path class="fil1 str1" d="M5180.41 15462.19c212.53,-22.38 309.45,161.86 318.38,503.65l312.42 10.48c-18.33,-654.89 -228.1,-992 -623.85,-1020.29l-6.95 506.16z"/>
      <polygon class="fil1 str1" points="4959.77,14689.8 4931.98,15670.2 5125.78,15691.93 5141.05,14689.59 "/>
      <polygon class="fil1 str1" points="4070.35,14871.03 4059.52,15375.93 4888.45,15400.63 4893.24,14901.07 "/>
     </g>
     <polygon class="fil1 str1" points="4690.19,14157.69 4686.52,14537.06 5398.32,14532.68 5399.77,14156.72 "/>
     <polygon class="fil1 str1" points="5206.57,11867.91 4969.37,11857.88 4935.92,14044.77 5172.12,14044.57 "/>
     <g>
      <polygon class="fil1 str1" points="5575.7,14657.78 5570.68,13963.07 5460.14,13971.08 5460.93,14667.76 "/>
      <path class="fil1 str1" d="M5783.32 13756.95c11.93,233.38 -55.79,348.12 -184.23,372.63l1.22 344.91c246.08,-48.28 369.45,-294.01 373.55,-731.56l-190.54 14.02z"/>
      <polygon class="fil1 str1" points="6070.27,13480.58 5700.95,13491.96 5695.98,13706.56 6073.34,13680.45 "/>
      <polygon class="fil1 str1" points="5987.39,12507.71 5797.25,12517.4 5801.65,13432.41 5989.68,13416.28 "/>
     </g>
     <g>
      <polygon class="fil1 str1" points="7010.93,16002.27 7007.12,16226.26 7376.02,16232.35 7378.67,16010.36 "/>
      <polygon class="fil1 str1" points="7291.53,14628.75 7115.87,14617.66 7088.37,15908.69 7263.3,15913.71 "/>
      <polygon class="fil1 str1" points="7403.85,14311.14 7031.98,14311.67 7028.57,14548.51 7401.2,14557.07 "/>
      <path class="fil1 str1" d="M6936.56 13853.26c125.64,-22.12 182.29,124.59 186.45,400.03l184.54 2.46c-8.68,-527.73 -131.5,-795.54 -365.22,-810.77l-5.77 408.28z"/>
      <polygon class="fil1 str1" points="6808.75,13234.66 6789.11,14025.76 6903.53,14039.57 6915.85,13231.02 "/>
      <polygon class="fil1 str1" points="6282.69,13397.85 6274.64,13805.19 6764.28,13809.22 6768.75,13406.3 "/>
      <polygon class="fil1 str1" points="6248.51,13181.24 6144.31,13183.74 6133.68,13977.15 6236.98,13972.24 "/>
     </g>
     <g>
      <g>
       <polygon class="fil1 str1" points="6314.12,14237.95 6315.75,14113.14 6056.77,14111.42 6055.95,14235.11 "/>
       <polygon class="fil1 str1" points="6123.59,15004.44 6246.94,15009.82 6260.2,14290.43 6137.39,14288.43 "/>
       <polygon class="fil1 str1" points="6046.23,15181.9 6307.26,15179.91 6308.54,15047.95 6046.94,15044.87 "/>
       <path class="fil1 str1" d="M6376.38 15434.87c-88.08,12.89 -128.54,-68.58 -132.74,-222.02l-129.55 -0.53c8.56,293.97 96.03,442.62 260.15,450.04l2.14 -227.49z"/>
       <polygon class="fil1 str1" points="6469,15778.92 6479.07,15338.1 6398.69,15330.92 6393.83,15781.44 "/>
       <polygon class="fil1 str1" points="6837.48,15685.61 6841.23,15458.64 6497.52,15458.62 6496.27,15683.12 "/>
       <polygon class="fil1 str1" points="6862.49,15806.14 6935.63,15804.27 6939.37,15362.19 6866.88,15365.4 "/>
      </g>
      <polygon class="fil1 str1" points="7621.91,15713.29 7629.39,15481.06 6963.63,15448.98 6959.29,15680.22 "/>
     </g>
     <polygon class="fil1 str1" points="4580.28,13638.5 4390.73,13642.41 4384.98,14758.42 4572.84,14751.11 "/>
     <polygon class="fil1 str1" points="3834.06,11406.47 3666.72,11417.18 3667.95,12376.89 3833.46,12359.43 "/>
     <polygon class="fil1 str1" points="4139.56,12610.64 4142.98,12436.91 3386.61,12451.02 3386.72,12623.82 "/>
     <polygon class="fil1 str1" points="4280.69,14203.83 3566.89,14216.57 3558.92,14529.07 4287.43,14523.66 "/>
     <polygon class="fil1 str1" points="4542.07,-50886.11 4352.5,-50874.36 4355.92,-49623.91 4543.78,-49639.39 "/>
     <polygon class="fil1 str1" points="5710.58,-50086.81 5715.87,-50683.14 4623.04,-50634.07 4622.86,-50040.91 "/>
     <polygon class="fil1 str1" points="5981.88,-49741.28 5972.78,-51001.04 5772.34,-50986.52 5773.77,-49723.18 "/>
     <path class="fil1 str1" d="M6358.37 -51374.81c21.63,423.2 -101.16,631.28 -334.08,675.71l2.21 625.45c446.25,-87.55 669.96,-533.14 677.4,-1326.59l-345.53 25.43z"/>
     <polygon class="fil1 str1" points="6878.72,-51875.98 6209.01,-51855.33 6199.99,-51466.19 6884.29,-51513.54 "/>
     <polygon class="fil1 str1" points="6728.42,-53640.15 6383.63,-53622.58 6391.61,-51963.33 6732.59,-51992.57 "/>
     <polygon class="fil1 str1" points="6910.88,-53779.82 6906.34,-54132.58 6234.88,-54081.17 6241.44,-53731.74 "/>
     <rect class="fil1 str1" transform="matrix(2.51984 0.0430633 -5.24135E-002 3.06696 3839.59 13455.1)" width="68.44" height="198.18"/>
     <path class="fil1 str1" d="M4213.74 13279.33c0,0 208.1,-163.89 169.52,212.49l200.22 -3.91c-2.62,-598.64 -144.44,-588.99 -366.34,-585.63l-3.4 377.05z"/>
     <g>
      <polygon class="fil1 str1" points="24.12,7399.95 -190.26,7405.27 -183.28,8072.04 29.16,8064.72 "/>
      <polygon class="fil1 str1" points="1347.73,7831.98 1352.23,7514.04 116.33,7534.74 117.6,7851.02 "/>
      <polygon class="fil1 str1" points="1655.44,8017.58 1642.02,7345.81 1415.35,7352.56 1420.1,8026.19 "/>
      <path class="fil1 str1" d="M2077.2 7148.44c25.52,225.77 -112.84,336.1 -376.17,358.63l4.05 333.51c504.51,-44.46 756.42,-280.93 762.87,-703.97l-390.75 11.83z"/>
      <polygon class="fil1 str1" points="2664.49,6883.82 1907.08,6891.48 1897.84,7098.93 2671.69,7077.1 "/>
      <polygon class="fil1 str1" points="2490.12,5942.39 2100.19,5950.04 2113.34,6834.81 2498.92,6820.92 "/>
      <polygon class="fil1 str1" points="2696.13,5868.83 2690.12,5680.72 1930.81,5704.77 1939.1,5891.13 "/>
     </g>
    </g>
   </g>
   <path class="fil3 str1" d="M7563.07 13719.08c-3616.99,-2024.68 -5896.25,-4762.39 -4965.15,-8877.98 98.65,-32.58 -896.37,1347.38 -1639.83,5462.56 -91.94,509.07 969.98,4673.39 6622.92,5948.75l-17.94 -2533.33z"/>
   <path class="fil8" d="M7560.39 17157.67c-4602.82,-1258.33 -6439.1,-3658.75 -6995.74,-5482.28 -458.6,500.25 447.06,6673.17 973.34,6673.66l6040.36 5.99 -17.96 -1197.37z"/>
   <g style="clip-path:url(#id2)">
    <g>
     <g>
      <rect class="fil7 str1" x="5470.65" y="17302.66" width="147.21" height="324.68"/>
      <g>
       <polygon class="fil5 str1" points="5284.36,17998.81 5026.69,17894.88 5833.25,17358.12 6616.4,17843.42 6383.05,17997.91 5828.84,17610.36 "/>
       <polygon class="fil9 str1" points="5699.53,18399.94 5406.05,18396.92 5426.73,17903.98 5828.84,17610.36 6242.89,17902.75 6253.41,18396.27 5937.62,18399.77 5939.39,17889.64 5720.32,17893.23 "/>
      </g>
     </g>
     <g>
      <polygon class="fil5 str1" points="6323.04,17948.35 6044.85,17760.77 7038.53,17003.2 8003.38,17688.15 7715.89,17906.16 7033.1,17359.19 "/>
      <polygon class="fil9 str1" points="6873.79,18473.57 6512.22,18469.32 6537.7,17773.59 7033.1,17359.19 7543.2,17771.86 7556.17,18468.39 7167.11,18473.32 7169.29,17753.36 6899.39,17758.43 "/>
     </g>
    </g>
   </g>
   <path class="fil3 str1" d="M7560.39 17157.67c-4602.82,-1258.33 -6439.1,-3658.75 -6995.74,-5482.28 -458.6,500.25 447.06,6673.17 973.34,6673.66l6040.36 5.99 -17.96 -1197.37z"/>
   <g>
    <polygon class="fil5 str1" points="1529.83,18348.26 1513.48,17563.52 2353.41,16956.85 3235.38,17557.23 3237.3,18337.02 "/>
    <polygon class="fil9 str2" points="2383.57,18331.31 2367.79,17115.08 3130.31,17619.3 3144.61,18326.33 "/>
    <g>
     <rect class="fil6" transform="matrix(1.29966 -9.72832E-003 0.00972832 1.29966 1754.73 17614)" width="102.11" height="99.06" rx="10" ry="10"/>
     <rect class="fil6" transform="matrix(1.29966 -9.72832E-003 0.00972832 1.29966 1758.25 17814.8)" width="102.11" height="99.06" rx="10" ry="10"/>
     <rect class="fil6" transform="matrix(1.29966 -9.72832E-003 0.00972832 1.29966 1763.83 18017.5)" width="102.11" height="99.06" rx="10" ry="10"/>
     <rect class="fil6" transform="matrix(1.06691 -7.98614E-003 0.00972832 1.29966 1957.27 17578)" width="102.11" height="99.06" rx="10" ry="10"/>
     <rect class="fil6" transform="matrix(1.06691 -7.98614E-003 0.00972832 1.29966 1966.62 17780.8)" width="102.11" height="99.06" rx="10" ry="10"/>
     <rect class="fil6" transform="matrix(1.06691 -7.98614E-003 0.00972832 1.29966 1974.25 17987.6)" width="102.11" height="99.06" rx="10" ry="10"/>
    </g>
    <rect class="fil7 str1" x="2539.74" y="17908.43" width="190.65" height="410.9"/>
    <rect class="fil7 str1" x="2794.05" y="17907.1" width="190.65" height="415.92"/>
   </g>
   <rect class="fil1 str1" x="5711.58" y="17884.84" width="227.27" height="468.55"/>
   <rect class="fil1 str1" x="6892.96" y="17755.17" width="266.29" height="587.11"/>
   <g>
    <g>
     <path class="fil7 str2" d="M1297.61 15188.69l1316.52 0 0 658.25 -506.35 0 -5.07 -308.88c-96.01,-99.9 -200.02,-108.36 -318.99,-5.06l-0.01 313.94 -486.1 0 0 -658.25z"/>
     <g>
      <polygon class="fil10 str1" points="1409.48,14812.88 2527.81,14821.03 2724.04,15122.79 1196.94,15122.79 "/>
      <rect class="fil7 str1" x="2228.59" y="14678.32" width="199.84" height="141.99"/>
     </g>
    </g>
    <g>
     <rect class="fil1 str1" x="1423.43" y="15334.59" width="267.99" height="343.84"/>
     <line class="fil3 str1" x1="1557.43" y1="15334.59" x2="1557.43" y2= "15678.43" />
     <line class="fil3 str1" x1="1423.43" y1="15506.52" x2="1691.42" y2= "15506.52" />
    </g>
    <g>
     <rect class="fil1 str1" x="2209.7" y="15329.54" width="267.99" height="343.84"/>
     <line class="fil3 str1" x1="2343.7" y1="15329.54" x2="2343.7" y2= "15673.39" />
     <line class="fil3 str1" x1="2209.7" y1="15501.47" x2="2477.69" y2= "15501.47" />
    </g>
   </g>
   <path class="fil11" d="M7542.99 17162.86c-2904.53,-855.22 -5814.55,-2536.87 -6978.33,-5487.47 -542.29,550.83 483.3,6558.87 965.16,6672.87l6030.05 4.79 -16.88 -1190.19z"/>
   <g style="clip-path:url(#id3)">
    <g>
     <g>
      <path id="_1_3" class="fil12" d="M118.2 16809.58l394.78 -3.2c45.7,6.02 25.78,26.23 31.08,99.42 56.86,7.35 153.15,2.17 214.31,2.22l166.15 -0.99c80.79,-1.53 39.55,22.82 58.85,60.67 13.23,25.95 413.35,511.53 481.66,602.66 103.5,138.06 216.53,265.85 318.12,401.96 13.68,18.34 10.84,28.84 0.51,42.57 -3.74,5 -33.96,40.05 -34.74,40.67 -28.67,22.66 -234.99,0.82 -294.14,11l-1.37 269.14 1542.44 1.49c6.11,-25.28 5.61,-274.57 -1.19,-295.12l-148.69 -0.67c-7.13,0.09 -18.06,0.45 -24.86,0.1l-23.87 -3.07c-19.28,-3.3 -59.56,-51.69 -51.76,-74.16l339.64 -564.38c54.65,-93.55 57.55,-64.79 -7.3,-163.01 -84.62,-128.2 -131.05,-172.14 -233.51,-285.32 -88.17,-97.39 -308.26,-283.95 -426.56,-360.29 -55.89,-36.08 -100.24,-64.22 -162,-102.37 -43.48,-26.87 -36.2,-29.39 -103.55,-28.29l-693.87 0.79c-178.33,-0.21 -372.81,-6.44 -548.96,-0.36 -79.96,3.9 -353,115.28 -427.87,148.1 -142.33,62.4 -203.82,101.11 -325.47,169.74 -8.46,4.78 -17.52,8.86 -22.31,12.56 -17.38,13.46 -6.25,0.95 -15.52,18.14z"/>
      <path class="fil13" d="M4442.38 18300.1c28.3,-55.41 38.24,-105.24 128.84,-102.96 95.6,2.41 85.87,64.35 122.9,104.72 45.06,1.93 90.71,-5.31 95.1,35.86l-472.03 -1.39c23.91,-59.23 99.58,-31.43 125.19,-36.23zm-1335.17 36.33c-6.42,-33.05 -5.33,-468.92 1.69,-493.32l220.13 2.04c7.56,27.07 7.67,463.65 0.23,492.27l-222.05 -0.99zm-2253.02 -489.54l223.06 0.69 -2.82 489.46 -221.62 -1.19 1.38 -488.96zm2972.47 56.84c10.68,7.23 51.55,91.64 60.38,108.77 28.82,55.95 -8.07,135.79 18.02,154.66 18.87,11.16 154.64,6.56 181.68,0.62l3.12 -128.29 74.58 -0.25c5.67,34.28 -9.88,118.71 11.53,126.83l38.91 5.96c35.89,-0.05 114.29,2.06 139.25,-5.38l0.98 -126.81 156.94 0.62 0.38 136.12c-57.19,17.61 -62.19,45.18 -94.61,91.46 -134.54,-0.37 -111.5,58.2 -153.51,69.22l-439.68 -1.68 2.03 -431.85zm724.25 137.5c32.24,-5.01 67.36,-2.45 100.26,-2.12 87.54,0.86 54.19,-5.96 86.05,-18.8 17.56,55.03 136.66,281.7 133.19,316.53 -98.67,4.15 4.93,-55.18 -157.87,-65.64 -16.86,-28.9 -7.98,-40.41 -54.61,-75.13 -35.77,-26.64 -56.79,-24.76 -108.73,-30.69l1.71 -124.15zm-345.84 -2.44l113.13 1.07 -2.14 99.41 -113.03 0.14 2.04 -100.62zm-269.43 0.38l116.43 1.95 -1.45 97.77 -116.55 -1.16 1.57 -98.56zm-2471.83 -11.43c-10.14,-17.26 -11.24,-214.43 -4.95,-275.99 25.38,13.25 226.75,258.63 231.83,279.5l-226.88 -3.51zm1570.18 308.42c-6.82,-32.89 -2.23,-327.98 -1.89,-386.65 0.45,-79.41 -9.27,-100.24 25.66,-167.24 35.61,-68.31 328.47,-612.54 359.24,-643.72 25.59,20.83 244.21,446.05 281.08,515.96 91.76,173.97 92.98,142.31 92.45,300.5 -0.21,64.06 -0.57,128.19 -0.38,192.25 0.13,45.18 6.69,151.3 -1.69,190.1l-417.5 -0.9c-23.37,-86.28 20.13,-479.81 -9.98,-518.14 -20.51,-12.67 -251.95,-12.21 -281.97,-0.63 -16.64,13.54 -8.04,355.75 -8.42,422.95 -0.12,23.11 1.22,49.53 0.31,72.03 -1.14,28.12 -5.09,26.92 -36.91,23.49zm-2532.21 -480.03c0.03,-46.19 29.01,-59.14 55.79,-91.74l335.09 -397.62c36.85,-40.7 101.56,-127.66 135.87,-151.3 22.91,18.13 48.39,57.25 64.94,77.33 23.36,28.35 35.53,45.78 61.03,77.03l247.02 306.61c29.3,36.73 19.09,65.3 19.35,113.78l-2.62 543.21c-65,7.01 -243.65,7.91 -303.71,-2.85l-1.23 -364.58c0.02,-125.62 17.47,-152.04 -35.65,-152.12 -34.75,-0.06 -244.33,-6.31 -255.66,6 -19.52,21.24 12.24,493.81 -9.8,513.05 -7,6.1 -292.44,9.62 -303.91,-0.52 -15.26,-13.5 -6.59,-418.27 -6.51,-476.28zm3861.09 -626.19c16.3,-15.1 310.6,-174.4 352.36,-167.11 103.33,18.04 92.01,6.91 170.4,46.41 33.29,16.77 602.75,7.94 643.53,7.91 236.34,-0.19 215.79,-28.61 316.57,76.76 177.66,185.78 198.08,227.35 334.71,436.31 106.06,162.18 283.76,533.85 308.94,706.29 -519.5,-0.49 -1059.67,4.97 -1574.22,-0.84 -24.43,-28.14 -158.98,-373.47 -193.03,-432.89l-217.36 -404.11c-26,-48.67 -131.65,-234.03 -141.9,-268.73zm-4723.13 1105.2c-12.34,-63.85 -2.24,-223.97 -1.94,-297.74 0.11,-27.69 -12,-125.81 11.9,-133.02 9.97,-3.02 141.55,-1.72 163.11,-1.76 112.56,-0.19 225.12,0.4 337.7,0.28 214.14,-0.26 186.2,17.87 256.55,-70.2 47.01,-58.85 520.7,-649.28 560.07,-688.03 18.56,9.77 25.25,21.8 36.18,41.33 -11.58,24.27 -76.37,90.32 -100.06,118.68l-293.5 347.16c-30.65,36.21 -139.45,150.59 -142.7,182.67 -8.37,82.83 13.23,453.94 -5.47,502.89l-821.84 -2.26zm6890.24 -0.62c-15.72,-27.25 -28.69,-88.23 -39.18,-119.94 -102.96,-311.31 -286.96,-651.96 -497.9,-905.31 -21.41,-25.7 -46.87,-55.29 -71.8,-83.92 -100.76,-115.83 -124.99,-80.51 -125.61,-187.64 -0.6,-104.12 -6.28,-368.69 1.53,-441.9 26.13,-5.01 194.63,-4.97 219.29,1.04l3.22 497.38c136.87,63.1 274.47,122.72 396.63,199.2 146.43,91.67 395.6,258.48 518.64,365.35 84.51,73.39 434.21,357.16 460.8,412.6l-39.66 15.46c24.9,13.65 52.45,13.6 91.18,47.41 12.47,10.9 22.32,22.98 31.39,38.57 8.04,13.79 12.62,30.79 21.59,42.91l18.43 -25.6c25.38,21.73 45.11,46.18 68.53,71.59 20.75,22.51 47.74,47.16 62.67,74.35l-1119.75 -1.55zm-3744.86 -345.48c2.62,-29.02 117.14,-209.08 141.48,-247.74l294.14 -484.2c27.66,-45.44 47.19,-79.51 71.97,-122.27 11.25,-19.43 55.3,-108.94 75.17,-120.74 13.51,16.34 22.35,37.67 30.46,57.64 11.1,27.35 0.08,29.51 -14.96,51.2 -42.37,61.05 -240.62,436.79 -289.04,521.08 -38.39,66.83 -95.92,150.67 -95.82,223.11 0.05,43.29 4.35,97.5 -3.6,139.21l-142.8 1.39c-54.83,0.2 -42.6,1.2 -67,-18.68zm-2424.2 -731.02c34.13,-42.23 67.12,-84.93 101.19,-128.06 25.48,-32.28 29.79,-31.05 29.12,-81.14 -0.48,-36.17 -1.43,-75.11 1.37,-110.29l437.69 0.01c23.28,9.73 4.02,-4.82 15.36,20.1 22.48,49.48 49.25,73.67 83.25,117.34l727.72 918.32 -21.99 24.88 -381.78 -464.11c-94.95,-118.97 -232.41,-294.66 -330.09,-407.74 -13.57,-15.71 -29.78,-45.21 -55.63,-50.34 -13.84,1.86 -587.28,714.57 -633.52,773.71 -213.08,10.06 -451.98,0.46 -668.16,1.31 -334.83,1.31 -332.69,20.59 -212.68,-123.6 23.64,-28.4 40.83,-51.47 69.16,-86.45 154.03,-190.23 330.94,-415.71 490.71,-604.85 43.33,-51.29 41.29,-72.65 84.27,-75.98 0.63,51.88 -11.69,241.34 9.07,270.79 28.19,15.59 209.53,8.88 254.94,6.1zm4341.85 742.06c-19.66,7.62 -716.92,5.97 -774.35,2.22 -69.32,-133.14 -523.2,-973 -531.18,-1043.53l774.98 1.89c26.06,33.93 470.18,862.2 517.69,948.66 13.96,25.39 53.21,75.12 12.86,90.76zm477.46 -1264.45l115.59 1.42 -2.11 184.62 -115.03 -1.03 1.55 -185.01zm355.39 181.08c-16.9,7.92 -55.94,5.99 -80.93,5.58 -38.81,-0.63 -34.26,-2.74 -34,-37.88 0.32,-44.2 -3.86,-103.36 1.63,-147.82l117.07 0.69c3.42,36.44 8.72,154 -3.77,179.43zm-599.01 -179.68l115.19 2.32c3.48,33.73 9.1,151.72 -2.44,175.3 -10.43,7.58 4.08,1.37 -12.86,5.27l-41.43 1.62c-20.22,-0.16 -38.42,0.18 -60.63,-1.92l2.17 -182.59zm-4483.84 200.79c6.79,27.74 3.04,65.04 3.1,94.43 0.1,44.08 1.69,48.71 -20.65,78.79 -32.44,43.67 -57.14,79.83 -90.97,116.19l-210.96 -0.87 -2.44 -314.42c-53.32,-15.13 -53.02,9.23 -47.6,-72.65l285.26 2.53c9.47,104.64 -19.13,86.13 84.26,96zm5123.8 -191.25c26.54,-43.31 10.12,47.16 76.38,-86.86l313.45 -636.58c8.37,-17.43 41.39,-90.97 53.96,-101.15 38.58,47.61 98.13,172.57 131.96,234.71 45.11,82.88 88.18,158.56 127.8,236.79 21.85,43.15 48.54,75 48.91,127.6 0.91,132.47 8.57,424.95 0.36,526.2l-276.55 -0.64c-8.2,-44.34 -2.06,-286.81 -2.32,-365.98 -0.07,-20.17 -0.41,-40.33 -0.21,-60.49 0.09,-8.84 0.98,-25.05 0.14,-33.09 -2.3,-21.76 2.98,-8.7 -6.86,-21.03 -19.15,-9.53 -242.89,-8.83 -277.53,-2.85 -14.97,46.79 3.74,461.41 -4.74,506.62 -2.47,13.19 -0.76,6.41 -4.64,12.77 -35.85,11.02 -462.67,3.32 -540.66,3.43 -90.18,0.13 -180.36,0.06 -270.53,0.25 -53.85,0.11 -50.96,-16.45 -99.54,-29.86 -21.56,-5.95 -100.54,-16.2 -110.23,-23 -11.15,-22.59 -10.63,-259 -2.95,-296.48l161.82 1.03c8.96,57.43 -9.71,164.59 5.92,216.19l183.08 -2.05c14.99,-36.63 2.63,-163.37 7.39,-214.75l48.74 0.26c6.83,58.1 -11.65,161.87 5.84,208.9 11.15,12.25 170.5,6.63 186.91,2.54l1.67 -212.9 47.28 0.35c6.08,43.77 -13.38,187.81 8.44,211.56 16.52,12.44 63.44,6.53 90.18,6.49 125.06,-0.19 97.66,28.55 96.53,-207.98zm-2012.21 181.39c-51.16,0 -162.84,11.47 -198.7,-14.94 -181.14,-133.39 -298.72,-211.59 -508.26,-324.72 -94.39,-50.97 -205.11,-96.13 -283,-138.31l-1.61 -51.51c104.52,11.91 254.01,66.51 351.12,97.37 187.32,59.53 442.1,166 602.67,262.99 53.89,32.55 238.81,135.78 259.86,168.6 -70.25,3.77 -150.68,0.54 -222.08,0.52zm-1321.72 -981.86l226.74 0.95 3.37 497.09c75.47,37.37 156.33,62.15 241.01,107.71l229.01 119.07c86.44,47.89 341.2,207.91 409.75,273.39 -3.74,17.16 -187.09,330.99 -199.54,344.52 -14.68,-13.35 -31.07,-43.56 -43.92,-63.84l-141.37 -186.53c-68.38,-79.74 -150.53,-163.48 -217.12,-222.99 -176.78,-157.99 -189.61,-164.64 -376,-289.63 -48.75,-32.69 -84.66,-46.71 -133.81,-81.39l1.88 -498.35zm-978.66 191.42l117.61 2.06 -1.82 98.54 -116.63 -0.94 0.84 -99.66zm267.73 -1.09l111.86 0.27 -3.14 98.19 -109.34 -0.08 0.62 -98.38zm1686.71 434.37c24.73,-74.69 283.08,-332.15 377.41,-411.28 111.38,-93.43 86.11,-88.47 177.28,-88.41 338.98,0.25 686.18,-3.52 1023.23,0.88 -10.85,40.02 -353.1,590.12 -349.88,619.65 18.33,39.97 41.29,47.9 94.15,47.69l154.08 0.49 -0.54 288.14 -351.81 169.04c-18.11,-35.08 -133.23,-246.34 -152.41,-268.26l-226.48 -0.29c-75.14,0.17 -106.77,10.21 -141.75,-16.66 -133.96,-102.95 -266.64,-175.84 -421,-254.72 -45.98,-23.5 -145.5,-60.86 -182.28,-86.27zm229.08 -509.78c6.58,-87.46 -12.93,-461.06 5.29,-507.15 35.45,-2.5 192.72,-8.73 211.84,3.77 10.18,8.65 3.87,-11.32 7.86,18.77l0.83 428.68c1.54,43.39 10.5,43.55 -19.87,68.63 -89.8,74.15 -119.51,96.4 -205.76,178.45 -115.15,109.52 -171.72,195.3 -264.65,305.74l-223.65 -83.17c-41.93,-14.61 -213.3,-60.32 -236.39,-74.22 41.17,-47.12 253.71,-160.24 333.8,-196.02 61.26,-27.37 121.01,-51.52 191.39,-76.74 52.43,-18.79 156.02,-45.36 199.31,-66.74zm-1949.18 204.72c31.48,5.48 79.9,2.43 113.59,2.56 59.95,0.24 67.06,9.75 66.53,-43.17 -0.27,-27.6 -4.57,-78.12 2.75,-103.01l483.24 -890.44c18.17,12.71 27.64,40.55 38.79,63.27l104.92 197.33c46.96,88.67 91.3,172.09 139.11,259.82 23.29,42.75 95.31,161.4 95.47,203.14 0.56,147.48 5.36,338.13 -1.74,475.81 -28.04,4.83 -37.56,-4.54 -39.04,-29.92 -4.7,-80.97 16.44,-469.03 -5.94,-485.43 -29.86,-8.63 -262.8,-9.56 -284.76,1.45 -16.23,31 -2.64,435.27 -5.81,512.27l-1142.79 -0.25 3.08 -291.2 158.05 0.05c4.27,38.21 -7.92,93.79 6.72,125.25 12.45,13.21 167.18,6.12 184.61,2.94l3.56 -128.56 74.49 0.39 5.17 127.7zm3115.97 439.59c-150.52,0.08 -145.02,9.43 -101.77,-71.85 23.05,-43.3 51.84,-89.87 77.36,-133.79 52.44,-90.28 105.65,-181.32 157,-271.47 52.43,-92.07 108.24,-177.09 160.89,-268.92 50.77,-88.58 103.75,-182.74 157.12,-271.2l95.87 -0.48c231.23,-0.94 626.53,-6.8 840.12,0.29 14.9,27.69 33.64,59.26 44.82,91.91 -16.29,17.68 -311.6,638.46 -342.59,699.22 -10.95,21.47 -94.32,218.76 -118.69,223.89l-970.13 2.4zm-1800.77 -957.74c8.37,-24.32 227.99,-274.63 258.56,-300.87l-1.62 300.22 -256.94 0.65zm2721.15 -248.85c27.09,-8.77 257.82,-6.02 298.56,-2.1 4.29,28.71 -4.62,67.18 7.73,90.93 55.56,30.55 76.62,-29.49 71.88,65.47l-318.82 -2 -6.09 -82.59 -54.97 -6.2 1.71 -63.51zm-2428.84 -48.49c0.21,-52.4 40.92,-89.7 87.79,-144.77l315.47 -378.98c27.55,23.64 391.26,458.04 425.4,500.3 99.7,123.38 98.22,80.36 97.22,204.71l-3.99 409.26 -318.93 -1.81c-0.3,-84.31 5.33,-484.18 -6.49,-515.03l-230.05 -1.49c-53.17,0 -58.75,-4.17 -59.09,31.56 -0.88,90.82 8.25,445.41 -4.78,485.35l-302.95 0.14 0.4 -589.24zm-531.26 655.21c-8.78,-189.81 34.64,-129.56 -57.84,-294.65 -105.93,-189.09 -206.98,-397.71 -307.91,-576.33 -26.89,-47.57 -37.11,-66.2 2.49,-117.01 27.52,35 51.99,85.21 72.92,121.11l211.77 370.69c25.27,43.31 271.26,458.75 280.52,497.43l-201.95 -1.24zm-948.19 -1067.13c-1.39,73.01 18.97,38.83 85.77,52.92 12.74,133.02 -0.82,124.94 -79.33,240.31 -22,32.32 -19.63,45.25 -63.97,45.22l-175.5 -1.17 -0.96 -172.54c-0.47,-185.58 0.66,-121.74 -64.92,-140.66 -1.43,-12.17 -3.07,-40.21 -2.09,-51.94 1.91,-23.25 2,-20.65 28.58,-20.66l271.59 3.01c2.38,16.41 1.15,29.07 0.83,45.51zm3242.55 920.12c-13.11,22 -35.65,62.43 -52.01,81.34l-751.08 -0.35c-8.11,-127.71 -0.25,-277.79 0.08,-407.93 0.3,-115.07 12.98,-85.29 -48.03,-158.54l-487.52 -578.45 33.99 -36.01c17.1,11.85 472.83,578.8 538.64,659.11 25.14,30.69 51.13,69.43 73.95,92.07 110.07,5.97 674.97,-11.05 720.74,4.19 5.97,76.68 2.31,170.17 2.2,248.47 -0.07,55.09 -7.13,56.09 -30.96,96.1zm-2112.73 -249.28l-20.05 4.74c19.22,101.54 199.09,49.03 331.65,65.17 14.57,68.92 -15.92,230.19 11.63,277.47 12.15,14.39 14.4,12.54 42.35,13.03l187.42 0.58 -199.27 77.51c-63.85,27.07 -128.64,56.99 -181.09,85.2 -287.74,154.73 -188.24,176.37 -357.3,131.92l0.99 -79.65 1.63 -144.22c39.93,-6.38 122.94,-2.78 167.75,-3.27 61.03,-0.67 76.08,-23.69 85.94,-72.2 -9.01,-4.95 4.59,-8.13 -13.42,0.78l-15.55 4.1 -289.63 -505.34c-49.09,-84.57 -98.8,-170.51 -145.55,-254.08 -23.58,-42.17 -49.86,-88.04 -72.64,-127.13 -68.46,-117.44 -72.55,-169.93 -125.99,-63.09 -101.8,203.5 -208.83,392.18 -312.62,588.86l-205.61 394.23 -754.36 -0.51 -30.87 -37.82c16.93,-43.17 214.29,-382.86 250.26,-452.88 38.92,-75.74 85.11,-160.36 123.7,-229.1l121.32 -221.53c6.3,63.23 -13.47,194.08 6.5,241.26 33.53,9.35 210.86,8.67 254.59,2.08 33.31,-37.7 64.71,-86.01 95.14,-133.4 62.51,-97.35 20.9,-70.8 36.61,-182.04l39.31 -4.01c15.57,-30.24 -16.24,-28.46 80.64,-28.74 38.9,-0.12 77.8,-0.38 116.69,-0.49 59.61,-0.16 177.69,5.29 229.84,-2.5 31.17,-34.32 -45.59,-28.56 -70.18,-28.43 -74.47,0.39 -302.71,5.12 -346.63,-1.36l-4.64 -56.84c-43.55,-21.81 -185.4,-10.57 -250.47,-10.87 -60.03,-0.29 -203.7,-10.92 -248.07,7.9 -7.52,23.13 -6.14,65.65 -4.78,90.78 2.35,43.16 19.13,31.91 55.39,43.42 -7.34,33.23 -56.02,116.39 -73.55,147.85l-388.32 707.25c-39.31,72.26 -75.51,108.25 -44.43,142.4 53.86,59.21 68.7,34 187.63,39.75l-0.83 296.43c-27.38,2.5 -52.78,0.77 -78.91,2.65 -31.43,2.25 -36.71,10.28 -39.05,26.01 176.15,-6.08 370.63,0.15 548.96,0.36l693.87 -0.79c67.35,-1.1 60.07,1.42 103.55,28.29 61.76,38.15 106.11,66.29 162,102.37 118.3,76.34 338.39,262.9 426.56,360.29 102.46,113.18 148.89,157.12 233.51,285.32 64.85,98.22 61.95,69.46 7.3,163.01l-339.64 564.38c-7.8,22.47 32.48,70.86 51.76,74.16l23.87 3.07c6.8,0.35 17.73,-0.01 24.86,-0.1l148.69 0.67c6.8,20.55 7.3,269.84 1.19,295.12l-1542.44 -1.49 1.37 -269.14c59.15,-10.18 265.47,11.66 294.14,-11 0.78,-0.62 31,-35.67 34.74,-40.67 10.33,-13.73 13.17,-24.23 -0.51,-42.57 -101.59,-136.11 -214.62,-263.9 -318.12,-401.96 -68.31,-91.13 -468.43,-576.71 -481.66,-602.66 -19.3,-37.85 21.94,-62.2 -58.85,-60.67l-166.15 0.99c-61.16,-0.05 -157.45,5.13 -214.31,-2.22 -5.3,-73.19 14.62,-93.4 -31.08,-99.42l-394.78 3.2c-49.12,-4.28 -78.17,-4.55 -68.83,44.8 -4.35,30.19 0.83,80.48 -5.04,105.32 -5.05,21.35 -120.46,155.45 -138.65,177.61 -159.96,194.76 -323.61,405.98 -477.07,589.41 -116.83,139.64 -95.87,106.92 -57.52,175.34l231.26 2.18 -2.45 429.06c-34.6,17.95 -767.2,3.58 -794.05,3.06l0 25.75 8886.64 -0.6c12.01,-40.5 -24.19,-55.61 -37.89,-67.34l-120.18 -134.5c-12.55,-20.13 -21.09,-26.35 -34.51,-39.86 -27.3,-27.48 -53.35,-50.88 -72.51,-73.26 -26.43,-16.75 -54.74,-47.13 -75.83,-68.53 -97.05,-98.41 -276.23,-246.17 -389.12,-338.48 -169.9,-138.94 -488.84,-366.36 -695.51,-465.29 -27.65,-13.24 -180.54,-82.28 -189.52,-95.86 75.4,-3.23 180.56,2.52 250.46,-1.3 49.39,-2.7 24.99,-20.31 62.85,-9.73l218.39 96.39 17.7 -5.22c-3.7,-19 -1.48,-20.48 -21.29,-28.17l-245.18 -109.15c-7.04,-14.09 1.6,-246.7 6.03,-282.87 36.47,-3.29 71.74,-3 108.34,-2.94 139.54,0.24 109.69,-9.8 37.21,-154.08l-491.89 -926.13 -69.63 -5.16 0.37 -49.04c32.75,-14.85 49.18,4.66 49.79,-45.92 0.3,-24.49 4.8,-61.04 -4.77,-82.64 -22.46,-12.35 -469.38,-11.89 -491.2,0.3 -10.82,21.34 -6.2,82.12 -3.33,107.6 9.39,8.16 10.29,10.15 24.82,15.09l30.11 8.63 -1.89 48.32c-74.16,0.81 -468.94,-4.99 -503.56,5.61 -14.86,6.86 -56.96,83.82 -64.57,97.35 -5.25,9.35 -50.5,90.02 -55.81,94.42l1.12 -237.07c33.66,-6.82 116.38,-2.61 155.59,-2.58 22.74,0.02 57.52,4.49 76.62,-3.59 7.51,-3.18 17.73,-13.26 18.05,-25.03 0.8,-29.48 -0.93,-18.55 -16.34,-20.74 -18.92,28.92 -56.73,18.79 -102.89,18.76 -40.94,-0.04 -81.87,-0.23 -122.8,-0.05l-742.94 -0.97 -549.15 -675.22c-85.09,-100.62 -69.68,-126.23 -140.9,-37.47l-143.71 173.58c-63.43,74.03 -127.79,154.62 -189.98,231.13 -42.63,52.44 -365.78,416.82 -386.7,456.18 -19.45,-5.13 -15.69,-1.94 -30.14,-17.51z"/>
      <path class="fil12" d="M4362.87 17229.94c10.25,34.7 115.9,220.06 141.9,268.73l217.36 404.11c34.05,59.42 168.6,404.75 193.03,432.89 514.55,5.81 1054.72,0.35 1574.22,0.84 -25.18,-172.44 -202.88,-544.11 -308.94,-706.29 -136.63,-208.96 -157.05,-250.53 -334.71,-436.31 -100.78,-105.37 -80.23,-76.95 -316.57,-76.76 -40.78,0.03 -610.24,8.86 -643.53,-7.91 -78.39,-39.5 -67.07,-28.37 -170.4,-46.41 -41.76,-7.29 -336.06,152.01 -352.36,167.11z"/>
      <path class="fil12" d="M3218.42 16570.8c36.78,25.41 136.3,62.77 182.28,86.27 154.36,78.88 287.04,151.77 421,254.72 34.98,26.87 66.61,16.83 141.75,16.66l226.48 0.29c19.18,21.92 134.3,233.18 152.41,268.26l351.81 -169.04 0.54 -288.14 -154.08 -0.49c-52.86,0.21 -75.82,-7.72 -94.15,-47.69 -3.22,-29.53 339.03,-579.63 349.88,-619.65 -337.05,-4.4 -684.25,-0.63 -1023.23,-0.88 -91.17,-0.06 -65.9,-5.02 -177.28,88.41 -94.33,79.13 -352.68,336.59 -377.41,411.28z"/>
      <path class="fil13" d="M6529.98 18334.52l1119.75 1.55c-14.93,-27.19 -41.92,-51.84 -62.67,-74.35 -23.42,-25.41 -43.15,-49.86 -68.53,-71.59l-18.43 25.6c-8.97,-12.12 -13.55,-29.12 -21.59,-42.91 -9.07,-15.59 -18.92,-27.67 -31.39,-38.57 -38.73,-33.81 -66.28,-33.76 -91.18,-47.41l39.66 -15.46c-26.59,-55.44 -376.29,-339.21 -460.8,-412.6 -123.04,-106.87 -372.21,-273.68 -518.64,-365.35 -122.16,-76.48 -259.76,-136.1 -396.63,-199.2l-3.22 -497.38c-24.66,-6.01 -193.16,-6.05 -219.29,-1.04 -7.81,73.21 -2.13,337.78 -1.53,441.9 0.62,107.13 24.85,71.81 125.61,187.64 24.93,28.63 50.39,58.22 71.8,83.92 210.94,253.35 394.94,594 497.9,905.31 10.49,31.71 23.46,92.69 39.18,119.94z"/>
      <path class="fil12" d="M360.92 17258.02c-45.41,2.78 -226.75,9.49 -254.94,-6.1 -20.76,-29.45 -8.44,-218.91 -9.07,-270.79 -42.98,3.33 -40.94,24.69 -84.27,75.98 -159.77,189.14 -336.68,414.62 -490.71,604.85 -28.33,34.98 -45.52,58.05 -69.16,86.45 -120.01,144.19 -122.15,124.91 212.68,123.6 216.18,-0.85 455.08,8.75 668.16,-1.31 46.24,-59.14 619.68,-771.85 633.52,-773.71 25.85,5.13 42.06,34.63 55.63,50.34 97.68,113.08 235.14,288.77 330.09,407.74l381.78 464.11 21.99 -24.88 -727.72 -918.32c-34,-43.67 -60.77,-67.86 -83.25,-117.34 -11.34,-24.92 7.92,-10.37 -15.36,-20.1l-437.69 -0.01c-2.8,35.18 -1.85,74.12 -1.37,110.29 0.67,50.09 -3.64,48.86 -29.12,81.14 -34.07,43.13 -67.06,85.83 -101.19,128.06z"/>
      <path class="fil12" d="M5525.83 16430.17c-56.35,6.74 -576.86,6.06 -603.73,-2.88 -14.63,-34.17 -6.98,-159.93 -7.25,-208.04 -0.47,-81.64 -13.16,-60.18 88.5,-135.43 86.67,-64.18 48.21,-47.13 188.11,-46.96l479 -0.76c38.5,-0.58 82.55,-5.61 60.7,39.38l-205.33 354.69zm-911.54 275.16l970.13 -2.4c24.37,-5.13 107.74,-202.42 118.69,-223.89 30.99,-60.76 326.3,-681.54 342.59,-699.22 -11.18,-32.65 -29.92,-64.22 -44.82,-91.91 -213.59,-7.09 -608.89,-1.23 -840.12,-0.29l-95.87 0.48c-53.37,88.46 -106.35,182.62 -157.12,271.2 -52.65,91.83 -108.46,176.85 -160.89,268.92 -51.35,90.15 -104.56,181.19 -157,271.47 -25.52,43.92 -54.31,90.49 -77.36,133.79 -43.25,81.28 -48.75,71.93 101.77,71.85z"/>
      <path class="fil12" d="M4635.58 15013.76c9.95,14.5 17.53,23.21 29.94,38.99 26.08,33.13 47.6,44.45 47.36,95.15 -0.76,159.41 43.92,134.5 -214.65,130.76 -17.1,-22.41 -167.05,-236.85 -171.48,-258.91 -9.47,-47.14 67.07,-31.92 109.49,-31.91 48.32,0.02 107.39,-3.63 154.08,-1.16 30.9,1.63 32.43,8.38 45.26,27.08zm-385.85 -26.75c75.32,122.28 96.16,52.39 96.78,199.57 0.51,115.87 20.69,95.16 -155.87,95.18 -78.2,0.03 -64.41,-8.48 -101.07,-59.68l-129.05 -181.03c-45.97,-66.39 17.98,-53.47 76.61,-53.36l212.6 -0.68zm-1493.53 722.16c14.45,15.57 10.69,12.38 30.14,17.51 20.92,-39.36 344.07,-403.74 386.7,-456.18 62.19,-76.51 126.55,-157.1 189.98,-231.13l143.71 -173.58c71.22,-88.76 55.81,-63.15 140.9,37.47l549.15 675.22 742.94 0.97c40.93,-0.18 81.86,0.01 122.8,0.05 46.16,0.03 83.97,10.16 102.89,-18.76 -3.72,-29.13 -132.65,-182.9 -162.98,-221.43l-523.21 -648.93 -902.58 0.82 -150.26 190.23c-142.62,180.57 -341.84,406.58 -467.05,571.37l-156.03 189.93c-15.72,20.52 -43.18,42.39 -47.1,66.44z"/>
      <path class="fil12" d="M2814.43 16066.23c3.44,-33.58 -50.54,-103.11 -70.12,-134.83l-448 -754.02c-12.82,-22.06 -24.91,-43.14 -38.04,-64.72l-38.65 -54.8c-0.57,-2.24 -2.36,-2.44 -3.41,-3.76 -52.15,7.79 -170.23,2.34 -229.84,2.5 -38.89,0.11 -77.79,0.37 -116.69,0.49 -96.88,0.28 -65.07,-1.5 -80.64,28.74l-39.31 4.01c-15.71,111.24 25.9,84.69 -36.61,182.04 -30.43,47.39 -61.83,95.7 -95.14,133.4 -43.73,6.59 -221.06,7.27 -254.59,-2.08 -19.97,-47.18 -0.2,-178.03 -6.5,-241.26l-121.32 221.53c-38.59,68.74 -84.78,153.36 -123.7,229.1 -35.97,70.02 -233.33,409.71 -250.26,452.88l30.87 37.82 754.36 0.51 205.61 -394.23c103.79,-196.68 210.82,-385.36 312.62,-588.86 53.44,-106.84 57.53,-54.35 125.99,63.09 22.78,39.09 49.06,84.96 72.64,127.13 46.75,83.57 96.46,169.51 145.55,254.08l289.63 505.34 15.55 -4.1z"/>
      <path class="fil12" d="M4207.4 17259.35l120.17 161.24c34.73,45.41 24.41,48.62 24.61,111.46 0.53,165.24 30.98,139.35 -149.26,139.86 -44.62,0.12 -105.37,3.21 -147.95,-2.42 -20.68,-36.93 -200.24,-366.04 -201.3,-385.86 -1.99,-37.39 60.32,-24.92 97.51,-25.06 78.79,-0.28 179.95,-5.14 256.22,0.78zm-278.98 742.95c57.43,3.75 754.69,5.4 774.35,-2.22 40.35,-15.64 1.1,-65.37 -12.86,-90.76 -47.51,-86.46 -491.63,-914.73 -517.69,-948.66l-774.98 -1.89c7.98,70.53 461.86,910.39 531.18,1043.53z"/>
      <path class="fil2" d="M1953.73 16125.87c0.16,-121.84 -15.05,-132.3 31.71,-133.6l158.73 4.98 0.96 145.1c0.11,120.29 47.53,142.31 -185.76,122.68 -12.73,-26.25 -5.71,-100.6 -5.64,-139.16zm281.33 -365.05c-20.14,7.5 -60.52,3.7 -83.11,4.03 -50.55,0.73 -56.63,6.81 -56.04,-39.5 0.58,-45.36 -4.55,-127.99 3.48,-168.38 25.27,-4.63 51.33,-2.97 77.36,-3.04 37.36,-0.11 52.98,-4.77 65.63,8.37 10.97,13.69 11.23,178.61 0.86,193.82l-8.18 4.7zm-736.74 504.92l-5.17 -127.7 -74.49 -0.39 -3.56 128.56c-17.43,3.18 -172.16,10.27 -184.61,-2.94 -14.64,-31.46 -2.45,-87.04 -6.72,-125.25l-158.05 -0.05 -3.08 291.2 1142.79 0.25c3.17,-77 -10.42,-481.27 5.81,-512.27 21.96,-11.01 254.9,-10.08 284.76,-1.45 22.38,16.4 1.24,404.46 5.94,485.43 1.48,25.38 11,34.75 39.04,29.92 7.1,-137.68 2.3,-328.33 1.74,-475.81 -0.16,-41.74 -72.18,-160.39 -95.47,-203.14 -47.81,-87.73 -92.15,-171.15 -139.11,-259.82l-104.92 -197.33c-11.15,-22.72 -20.62,-50.56 -38.79,-63.27l-483.24 890.44c-7.32,24.89 -3.02,75.41 -2.75,103.01 0.53,52.92 -6.58,43.41 -66.53,43.17 -33.69,-0.13 -82.11,2.92 -113.59,-2.56z"/>
      <path class="fil2" d="M6101.79 16757.56c-0.2,-90.97 -38.02,-84.04 181.37,-76.9 12.64,19.94 14.37,241.78 3.69,272.87 -210.08,2.49 -184.42,17.73 -184.52,-80.62l-0.54 -115.35zm-525.22 -10.99c1.13,236.53 28.53,207.79 -96.53,207.98 -26.74,0.04 -73.66,5.95 -90.18,-6.49 -21.82,-23.75 -2.36,-167.79 -8.44,-211.56l-47.28 -0.35 -1.67 212.9c-16.41,4.09 -175.76,9.71 -186.91,-2.54 -17.49,-47.03 0.99,-150.8 -5.84,-208.9l-48.74 -0.26c-4.76,51.38 7.6,178.12 -7.39,214.75l-183.08 2.05c-15.63,-51.6 3.04,-158.76 -5.92,-216.19l-161.82 -1.03c-7.68,37.48 -8.2,273.89 2.95,296.48 9.69,6.8 88.67,17.05 110.23,23 48.58,13.41 45.69,29.97 99.54,29.86 90.17,-0.19 180.35,-0.12 270.53,-0.25 77.99,-0.11 504.81,7.59 540.66,-3.43 3.88,-6.36 2.17,0.42 4.64,-12.77 8.48,-45.21 -10.23,-459.83 4.74,-506.62 34.64,-5.98 258.38,-6.68 277.53,2.85 9.84,12.33 4.56,-0.73 6.86,21.03 0.84,8.04 -0.05,24.25 -0.14,33.09 -0.2,20.16 0.14,40.32 0.21,60.49 0.26,79.17 -5.88,321.64 2.32,365.98l276.55 0.64c8.21,-101.25 0.55,-393.73 -0.36,-526.2 -0.37,-52.6 -27.06,-84.45 -48.91,-127.6 -39.62,-78.23 -82.69,-153.91 -127.8,-236.79 -33.83,-62.14 -93.38,-187.1 -131.96,-234.71 -12.57,10.18 -45.59,83.72 -53.96,101.15l-313.45 636.58c-66.26,134.02 -49.84,43.55 -76.38,86.86z"/>
      <path class="fil12" d="M-400.1 18333.3l2.45 -429.06 -231.26 -2.18c-38.35,-68.42 -59.31,-35.7 57.52,-175.34 153.46,-183.43 317.11,-394.65 477.07,-589.41 18.19,-22.16 133.6,-156.26 138.65,-177.61 5.87,-24.84 0.69,-75.13 5.04,-105.32 -35.94,8.84 -79.07,43.81 -109.77,65.87 -433.56,311.42 -778.4,721.16 -992.91,1183.76 -29.52,63.67 -76.62,164.01 -91.68,230.68l744.89 -1.39z"/>
      <path class="fil2" d="M1179.44 17930.62c28.84,-8.24 146.27,-6.02 179.35,-1.54 3.25,20.12 11.17,244.43 -3.98,257.35 -24.16,11.92 -78.19,5.09 -111.44,5.44 -67.7,0.73 -66.41,10.18 -65.72,-49.88 0.67,-58.95 -7.29,-157.94 1.79,-211.37zm-457.91 261.14l-139.91 -0.28 -2.81 -262.92 182.52 -0.19 2.97 230.46c-0.66,35.31 -4.57,32.96 -42.77,32.93zm-219.75 -335.63c-0.08,58.01 -8.75,462.78 6.51,476.28 11.47,10.14 296.91,6.62 303.91,0.52 22.04,-19.24 -9.72,-491.81 9.8,-513.05 11.33,-12.31 220.91,-6.06 255.66,-6 53.12,0.08 35.67,26.5 35.65,152.12l1.23 364.58c60.06,10.76 238.71,9.86 303.71,2.85l2.62 -543.21c-0.26,-48.48 9.95,-77.05 -19.35,-113.78l-247.02 -306.61c-25.5,-31.25 -37.67,-48.68 -61.03,-77.03 -16.55,-20.08 -42.03,-59.2 -64.94,-77.33 -34.31,23.64 -99.02,110.6 -135.87,151.3l-335.09 397.62c-26.78,32.6 -55.76,45.55 -55.79,91.74z"/>
      <path class="fil2" d="M3769.57 15633.65c32.44,-10.18 140.16,-9.57 178.97,-0.15 5.43,34.43 8.6,238.25 -1.31,263.47l-177.09 1.73c-12.03,-30.62 -10.59,-240.13 -0.57,-265.05zm-597.77 -1.98l134.9 -2.95c30.32,-0.11 40.3,1.28 45.33,6.82 8.29,22.5 9.82,236.12 -0.19,261.51l-177.38 1.86c-8.74,-25.25 -7.06,-233.39 -2.66,-267.24zm-65.97 -181.42l-0.4 589.24 302.95 -0.14c13.03,-39.94 3.9,-394.53 4.78,-485.35 0.34,-35.73 5.92,-31.56 59.09,-31.56l230.05 1.49c11.82,30.85 6.19,430.72 6.49,515.03l318.93 1.81 3.99 -409.26c1,-124.35 2.48,-81.33 -97.22,-204.71 -34.14,-42.26 -397.85,-476.66 -425.4,-500.3l-315.47 378.98c-46.87,55.07 -87.58,92.37 -87.79,144.77z"/>
      <path class="fil2" d="M3438.46 17908.15c28.06,-8.42 156.6,-8.92 184.72,-0.79 5.83,34.37 7.94,243.53 -4.56,260.61 -11.06,10.11 -169.63,8.85 -177.83,1.26 -11.38,-25.44 -10.35,-225.73 -2.33,-261.08zm-39.88 -233.6c-70.23,-0.1 -59.96,11.71 -59.36,-126.01 0.46,-103.34 -14.38,-86.17 102.34,-85.97 73.03,0.09 53.49,-1.18 53.99,124.41 0.31,75.98 9.53,86.06 -28.69,87.86 -19.83,0.93 -47.53,-0.26 -68.28,-0.29zm-364.59 661.61c31.82,3.43 35.77,4.63 36.91,-23.49 0.91,-22.5 -0.43,-48.92 -0.31,-72.03 0.38,-67.2 -8.22,-409.41 8.42,-422.95 30.02,-11.58 261.46,-12.04 281.97,0.63 30.11,38.33 -13.39,431.86 9.98,518.14l417.5 0.9c8.38,-38.8 1.82,-144.92 1.69,-190.1 -0.19,-64.06 0.17,-128.19 0.38,-192.25 0.53,-158.19 -0.69,-126.53 -92.45,-300.5 -36.87,-69.91 -255.49,-495.13 -281.08,-515.96 -30.77,31.18 -323.63,575.41 -359.24,643.72 -34.93,67 -25.21,87.83 -25.66,167.24 -0.34,58.67 -4.93,353.76 1.89,386.65z"/>
      <path class="fil13" d="M2240.76 16444.45c49.15,34.68 85.06,48.7 133.81,81.39 186.39,124.99 199.22,131.64 376,289.63 66.59,59.51 148.74,143.25 217.12,222.99l141.37 186.53c12.85,20.28 29.24,50.49 43.92,63.84 12.45,-13.53 195.8,-327.36 199.54,-344.52 -68.55,-65.48 -323.31,-225.5 -409.75,-273.39l-229.01 -119.07c-84.68,-45.56 -165.54,-70.34 -241.01,-107.71l-3.37 -497.09 -226.74 -0.95 -1.88 498.35z"/>
      <path class="fil13" d="M3447.5 16061.02c-43.29,21.38 -146.88,47.95 -199.31,66.74 -70.38,25.22 -130.13,49.37 -191.39,76.74 -80.09,35.78 -292.63,148.9 -333.8,196.02 23.09,13.9 194.46,59.61 236.39,74.22l223.65 83.17c92.93,-110.44 149.5,-196.22 264.65,-305.74 86.25,-82.05 115.96,-104.3 205.76,-178.45 30.37,-25.08 21.41,-25.24 19.87,-68.63l-0.83 -428.68c-3.99,-30.09 2.32,-10.12 -7.86,-18.77 -19.12,-12.5 -176.39,-6.27 -211.84,-3.77 -18.22,46.09 1.29,419.69 -5.29,507.15z"/>
      <path class="fil12" d="M-53.69 18189.72c-27.17,7.11 -86.35,3.12 -121.32,3.34 -59.34,0.38 -66.4,11.59 -65.95,-45.48 0.49,-61.22 -6.53,-160.62 2.25,-219.47l186.3 1.42 -1.28 260.19zm431.69 -4.85c-8.94,6.68 0.81,2.41 -13.73,6.15l-41.72 1.67c-139.3,-2.36 -131.56,19.94 -130.56,-50.79 0.95,-66.56 -5.22,-150.1 1.77,-214.07 33.05,-3.9 157.67,-4.7 186.15,3.08 6.94,29.89 7.66,235.75 -1.91,253.96zm-738.26 150.27l821.84 2.26c18.7,-48.95 -2.9,-420.06 5.47,-502.89 3.25,-32.08 112.05,-146.46 142.7,-182.67l293.5 -347.16c23.69,-28.36 88.48,-94.41 100.06,-118.68 -10.93,-19.53 -17.62,-31.56 -36.18,-41.33 -39.37,38.75 -513.06,629.18 -560.07,688.03 -70.35,88.07 -42.41,69.94 -256.55,70.2 -112.58,0.12 -225.14,-0.47 -337.7,-0.28 -21.56,0.04 -153.14,-1.26 -163.11,1.76 -23.9,7.21 -11.79,105.33 -11.9,133.02 -0.3,73.77 -10.4,233.89 1.94,297.74z"/>
      <path class="fil12" d="M4584.11 15664.47c-0.2,-34.82 3.02,-34.52 41.89,-34.37l144.83 4.69c1.88,40.05 11.36,243.34 -4.74,258.5 -13.25,12.48 -162.42,7.27 -180.81,4.12l-1.17 -232.94zm-434 71.41c-0.06,-116.28 -46.16,-113.61 186.32,-102.69 6.42,30.48 7.35,239.76 -1.65,265.51 -18.4,0.34 -172.2,5.38 -175.97,-2.98 -0.69,-1.54 -2.78,-1.07 -3.97,-1.89 -9.68,-9.62 -4.77,-138.31 -4.73,-157.95zm-619.74 -841.36l487.52 578.45c61.01,73.25 48.33,43.47 48.03,158.54 -0.33,130.14 -8.19,280.22 -0.08,407.93l751.08 0.35c16.36,-18.91 38.9,-59.34 52.01,-81.34 23.83,-40.01 30.89,-41.01 30.96,-96.1 0.11,-78.3 3.77,-171.79 -2.2,-248.47 -45.77,-15.24 -610.67,1.78 -720.74,-4.19 -22.82,-22.64 -48.81,-61.38 -73.95,-92.07 -65.81,-80.31 -521.54,-647.26 -538.64,-659.11l-33.99 36.01z"/>
      <path class="fil12" d="M7427.4 18046.55c24.06,-5.09 43.47,-34.7 55.59,-57.62 22.31,-42.15 5.85,-47.11 -14.48,-76.49 -192.09,-277.32 -393.31,-494.35 -706.94,-670.04l-152.45 -78.65 -218.39 -96.39c-37.86,-10.58 -13.46,7.03 -62.85,9.73 -69.9,3.82 -175.06,-1.93 -250.46,1.3 8.98,13.58 161.87,82.62 189.52,95.86 206.67,98.93 525.61,326.35 695.51,465.29 112.89,92.31 292.07,240.07 389.12,338.48 21.09,21.4 49.4,51.78 75.83,68.53z"/>
      <path class="fil12" d="M2574.4 16449.99c77.89,42.18 188.61,87.34 283,138.31 209.54,113.13 327.12,191.33 508.26,324.72 35.86,26.41 147.54,14.94 198.7,14.94 71.4,0.02 151.83,3.25 222.08,-0.52 -21.05,-32.82 -205.97,-136.05 -259.86,-168.6 -160.57,-96.99 -415.35,-203.46 -602.67,-262.99 -97.11,-30.86 -246.6,-85.46 -351.12,-97.37l1.61 51.51z"/>
      <path class="fil12" d="M3824.63 18335.58l439.68 1.68c42.01,-11.02 18.97,-69.59 153.51,-69.22 32.42,-46.28 37.42,-73.85 94.61,-91.46l-0.38 -136.12 -156.94 -0.62 -0.98 126.81c-24.96,7.44 -103.36,5.33 -139.25,5.38l-38.91 -5.96c-21.41,-8.12 -5.86,-92.55 -11.53,-126.83l-74.58 0.25 -3.12 128.29c-27.04,5.94 -162.81,10.54 -181.68,-0.62 -26.09,-18.87 10.8,-98.71 -18.02,-154.66 -8.83,-17.13 -49.7,-101.54 -60.38,-108.77l-2.03 431.85z"/>
      <path class="fil12" d="M3107.21 18336.43l222.05 0.99c7.44,-28.62 7.33,-465.2 -0.23,-492.27l-220.13 -2.04c-7.02,24.4 -8.11,460.27 -1.69,493.32z"/>
      <path class="fil12" d="M130.85 16911.94l2.44 314.42 210.96 0.87c33.83,-36.36 58.53,-72.52 90.97,-116.19 22.34,-30.08 20.75,-34.71 20.65,-78.79 -0.06,-29.39 3.69,-66.69 -3.1,-94.43 -103.39,-9.87 -74.79,8.64 -84.26,-96l-285.26 -2.53c-5.42,81.88 -5.72,57.52 47.6,72.65z"/>
      <path class="fil2" d="M1327.47 15062.41c65.58,18.92 64.45,-44.92 64.92,140.66l0.96 172.54 175.5 1.17c44.34,0.03 41.97,-12.9 63.97,-45.22 78.51,-115.37 92.07,-107.29 79.33,-240.31 -66.8,-14.09 -87.16,20.09 -85.77,-52.92 0.32,-16.44 1.55,-29.1 -0.83,-45.51l-271.59 -3.01c-26.58,0.01 -26.67,-2.59 -28.58,20.66 -0.98,11.73 0.66,39.77 2.09,51.94z"/>
      <polygon class="fil12" points="852.81,18335.85 1074.43,18337.04 1077.25,17847.58 854.19,17846.89 "/>
      <path class="fil12" d="M2785.12 17989.04c24.4,19.88 12.17,18.88 67,18.68l142.8 -1.39c7.95,-41.71 3.65,-95.92 3.6,-139.21 -0.1,-72.44 57.43,-156.28 95.82,-223.11 48.42,-84.29 246.67,-460.03 289.04,-521.08 15.04,-21.69 26.06,-23.85 14.96,-51.2 -8.11,-19.97 -16.95,-41.3 -30.46,-57.64 -19.87,11.8 -63.92,101.31 -75.17,120.74 -24.78,42.76 -44.31,76.83 -71.97,122.27l-294.14 484.2c-24.34,38.66 -138.86,218.72 -141.48,247.74z"/>
      <path class="fil12" d="M5301.28 16367.69c-15.44,-24.15 -8.01,-73.15 -7.51,-104.49 0.63,-38.75 -11.47,-79.94 32.15,-85.79 142.92,-19.14 112.8,24.07 112.01,124.23 -0.58,73.25 9.63,73.63 -74.57,74.41 -21.29,0.2 -46.58,2.44 -62.08,-8.36zm-300.13 -153.93c0,-37.24 17.75,-36.59 54.94,-36.65 66.89,-0.11 83.26,-4.87 89.62,20.17l2.59 32.92c0.45,127.76 12.58,142.47 -42.59,146.16l-97.6 -3.93c-11.41,-25.75 -6.96,-121.23 -6.96,-158.67zm-48.19 185.9l546.98 1.04 0.16 -236.39c-28.73,-23.82 -97.02,-76.1 -130.58,-94.37 -47.71,13.08 -99.38,77.9 -147.36,92.1 -42.62,-17.14 -86.88,-67.62 -135.08,-93.16 -18.9,7.23 -130.65,80 -135.15,106.45 -6.51,38.19 -2.07,180.63 1.03,224.33z"/>
      <path class="fil14" d="M4952.96 16399.66c-3.1,-43.7 -7.54,-186.14 -1.03,-224.33 4.5,-26.45 116.25,-99.22 135.15,-106.45 48.2,25.54 92.46,76.02 135.08,93.16 47.98,-14.2 99.65,-79.02 147.36,-92.1 33.56,18.27 101.85,70.55 130.58,94.37l-0.16 236.39 -546.98 -1.04zm581.99 -202.38c-0.1,-58.69 -1.8,-51.5 -40.46,-78.78 -12.88,-9.08 -58.82,-46.29 -65.75,-50.29l258.22 0.2c-0.11,21.93 -137.5,254.25 -153.19,266.89l1.18 -138.02zm196.21 -121.8c21.85,-44.99 -22.2,-39.96 -60.7,-39.38l-479 0.76c-139.9,-0.17 -101.44,-17.22 -188.11,46.96 -101.66,75.25 -88.97,53.79 -88.5,135.43 0.27,48.11 -7.38,173.87 7.25,208.04 26.87,8.94 547.38,9.62 603.73,2.88l205.33 -354.69z"/>
      <path class="fil12" d="M2574.57 16105.46l201.95 1.24c-9.26,-38.68 -255.25,-454.12 -280.52,-497.43l-211.77 -370.69c-20.93,-35.9 -45.4,-86.11 -72.92,-121.11 -39.6,50.81 -29.38,69.44 -2.49,117.01 100.93,178.62 201.98,387.24 307.91,576.33 92.48,165.09 49.06,104.84 57.84,294.65z"/>
      <path class="fil12" d="M2572.53 16285.14l-0.99 79.65c169.06,44.45 69.56,22.81 357.3,-131.92 52.45,-28.21 117.24,-58.13 181.09,-85.2l199.27 -77.51 -187.42 -0.58c-27.95,-0.49 -30.2,1.36 -42.35,-13.03 -40.39,-2.2 -227.61,80.09 -268.25,98.19 -72.63,32.35 -191.41,91.04 -238.65,130.4z"/>
      <path class="fil14" d="M4079.34 17641.32c-5.51,-35.84 -1.31,-77.91 -1.77,-114.76 -0.62,-49.73 -7.16,-56.08 21.71,-93.06 24.74,-31.7 71.72,-109.56 97.5,-130.38 24.93,18.52 79.51,105.08 101.27,132.96 27.12,34.75 18.27,47.63 18.6,95.97 0.23,34.21 2.01,72.9 -0.76,109.09l-236.55 0.18zm-42.21 -79.99c-3,-3.21 -4.09,-4.32 -8.32,-10.3 -4.79,-6.76 -126.5,-229.2 -134.47,-261.44l261.34 0.15c-7.92,21.91 -65.31,98.56 -79.95,117.22 -65.85,83.86 -13.43,100.94 -38.6,154.37zm165.79 110.58c180.24,-0.51 149.79,25.38 149.26,-139.86 -0.2,-62.84 10.12,-66.05 -24.61,-111.46l-120.17 -161.24c-76.27,-5.92 -177.43,-1.06 -256.22,-0.78 -37.19,0.14 -99.5,-12.33 -97.51,25.06 1.06,19.82 180.62,348.93 201.3,385.86 42.58,5.63 103.33,2.54 147.95,2.42z"/>
      <path class="fil12" d="M4550.91 18041.23l-1.71 124.15c51.94,5.93 72.96,4.05 108.73,30.69 46.63,34.72 37.75,46.23 54.61,75.13 162.8,10.46 59.2,69.79 157.87,65.64 3.47,-34.83 -115.63,-261.5 -133.19,-316.53 -31.86,12.84 1.49,19.66 -86.05,18.8 -32.9,-0.33 -68.02,-2.89 -100.26,2.12z"/>
      <path class="fil12" d="M5532.96 15562.25l54.97 6.2 6.09 82.59 318.82 2c4.74,-94.96 -16.32,-34.92 -71.88,-65.47 -12.35,-23.75 -3.44,-62.22 -7.73,-90.93 -40.74,-3.92 -271.47,-6.67 -298.56,2.1l-1.71 63.51z"/>
      <path class="fil14" d="M4245.48 15027.14c5.58,5.64 58.51,77.96 62.81,86.95 11.56,24.15 9.23,109.6 3.36,136.68l-151.25 2.93c-7.2,-32.33 -8.13,-114.53 9.67,-140.33 16.69,-24.19 49.65,-76.75 75.41,-86.23zm-254.16 -7.16l208.46 -1.04c-2.69,14.73 -42.42,62.54 -51.79,74.55 -34.32,44.03 -21.68,48.7 -23.49,111.61 -17.87,-10.8 -26.19,-27.83 -39.14,-45.15 -18.98,-25.45 -93.71,-122.29 -94.04,-139.97zm199.32 261.78c176.56,-0.02 156.38,20.69 155.87,-95.18 -0.62,-147.18 -21.46,-77.29 -96.78,-199.57l-212.6 0.68c-58.63,-0.11 -122.58,-13.03 -76.61,53.36l129.05 181.03c36.66,51.2 22.87,59.71 101.07,59.68z"/>
      <path class="fil12" d="M4136.17 17451.16c21.17,-10.25 48.84,-7.26 73.24,-7.58 36.03,-0.48 47.75,-6.19 50.23,27.39 1.85,25.06 0.05,112.45 -4.98,135.38 -23.28,11.33 -31.24,8.13 -57.77,8.25 -8.11,0.04 -23.76,0.47 -31.12,-0.14l-30.36 -6.5c-8.92,-38.11 -10.74,-120.23 0.76,-156.8zm-56.83 190.16l236.55 -0.18c2.77,-36.19 0.99,-74.88 0.76,-109.09 -0.33,-48.34 8.52,-61.22 -18.6,-95.97 -21.76,-27.88 -76.34,-114.44 -101.27,-132.96 -25.78,20.82 -72.76,98.68 -97.5,130.38 -28.87,36.98 -22.33,43.33 -21.71,93.06 0.46,36.85 -3.74,78.92 1.77,114.76z"/>
      <path class="fil12" d="M2813.52 15747.59l256.94 -0.65 1.62 -300.22c-30.57,26.24 -250.19,276.55 -258.56,300.87z"/>
      <path class="fil14" d="M4601.77 15028.24c21.76,9.98 58.61,57.49 70.4,79.8 15.64,29.61 10.02,105.14 6.78,143.55l-154.97 0.98c-0.28,-43.62 -11.82,-108.7 12.09,-141.06 26.39,-35.72 38.26,-57.34 65.7,-83.27zm-235.02 -7.6l195.81 -1.36c-7.33,21.18 -37.96,59.85 -53.23,78.92 -24.04,30.03 -15.07,70.9 -16.35,111.68 -24.51,-20.07 -116.57,-169.02 -126.23,-189.24zm131.48 258.02c258.57,3.74 213.89,28.65 214.65,-130.76 0.24,-50.7 -21.28,-62.02 -47.36,-95.15 -12.41,-15.78 -19.99,-24.49 -29.94,-38.99 -12.83,-18.7 -14.36,-25.45 -45.26,-27.08 -46.69,-2.47 -105.76,1.18 -154.08,1.16 -42.42,-0.01 -118.96,-15.23 -109.49,31.91 4.43,22.06 154.38,236.5 171.48,258.91z"/>
      <path class="fil12" d="M4442.38 18300.1c-25.61,4.8 -101.28,-23 -125.19,36.23l472.03 1.39c-4.39,-41.17 -50.04,-33.93 -95.1,-35.86 -37.03,-40.37 -27.3,-102.31 -122.9,-104.72 -90.6,-2.28 -100.54,47.55 -128.84,102.96z"/>
      <path class="fil12" d="M1463.81 18027.74l226.88 3.51c-5.08,-20.87 -206.45,-266.25 -231.83,-279.5 -6.29,61.56 -5.19,258.73 4.95,275.99z"/>
      <path class="fil12" d="M4037.13 17561.33c25.17,-53.43 -27.25,-70.51 38.6,-154.37 14.64,-18.66 72.03,-95.31 79.95,-117.22l-261.34 -0.15c7.97,32.24 129.68,254.68 134.47,261.44 4.23,5.98 5.32,7.09 8.32,10.3z"/>
      <path class="fil14" d="M1993.17 16027.11l115.13 1.48 -0.03 204.23 -117.28 -0.98 2.18 -204.73zm-39.44 98.76c-0.07,38.56 -7.09,112.91 5.64,139.16 233.29,19.63 185.87,-2.39 185.76,-122.68l-0.96 -145.1 -158.73 -4.98c-46.76,1.3 -31.55,11.76 -31.71,133.6z"/>
      <path class="fil15" d="M4601.77 15028.24c-27.44,25.93 -39.31,47.55 -65.7,83.27 -23.91,32.36 -12.37,97.44 -12.09,141.06l154.97 -0.98c3.24,-38.41 8.86,-113.94 -6.78,-143.55 -11.79,-22.31 -48.64,-69.82 -70.4,-79.8z"/>
      <path class="fil16" d="M5001.15 16213.76c0,37.44 -4.45,132.92 6.96,158.67l97.6 3.93c55.17,-3.69 43.04,-18.4 42.59,-146.16l-2.59 -32.92c-6.36,-25.04 -22.73,-20.28 -89.62,-20.17 -37.19,0.06 -54.94,-0.59 -54.94,36.65z"/>
      <path class="fil16" d="M5301.28 16367.69c15.5,10.8 40.79,8.56 62.08,8.36 84.2,-0.78 73.99,-1.16 74.57,-74.41 0.79,-100.16 30.91,-143.37 -112.01,-124.23 -43.62,5.85 -31.52,47.04 -32.15,85.79 -0.5,31.34 -7.93,80.34 7.51,104.49z"/>
      <path class="fil15" d="M4245.48 15027.14c-25.76,9.48 -58.72,62.04 -75.41,86.23 -17.8,25.8 -16.87,108 -9.67,140.33l151.25 -2.93c5.87,-27.08 8.2,-112.53 -3.36,-136.68 -4.3,-8.99 -57.23,-81.31 -62.81,-86.95z"/>
      <path class="fil14" d="M6136.9 16713.56l116.66 -1.22 1.68 207.45 -117.12 -0.3 -1.22 -205.93zm-35.11 44l0.54 115.35c0.1,98.35 -25.56,83.11 184.52,80.62 10.68,-31.09 8.95,-252.93 -3.69,-272.87 -219.39,-7.14 -181.57,-14.07 -181.37,76.9z"/>
      <path class="fil14" d="M229.72 17965.07c25.75,-8.58 85.96,-6.29 116.77,-2.91l-2.53 199.31 -115.59 -2.58 1.35 -193.82zm148.28 219.8c9.57,-18.21 8.85,-224.07 1.91,-253.96 -28.48,-7.78 -153.1,-6.98 -186.15,-3.08 -6.99,63.97 -0.82,147.51 -1.77,214.07 -1,70.73 -8.74,48.43 130.56,50.79l41.72 -1.67c14.54,-3.74 4.79,0.53 13.73,-6.15z"/>
      <path class="fil14" d="M4185.61 15667.24c29.83,-3.6 91.24,-5.86 116.67,1.59l1.51 194.56c-26.92,7.88 -88.67,6.04 -116.55,1.68l-1.63 -197.83zm-35.5 68.64c-0.04,19.64 -4.95,148.33 4.73,157.95 1.19,0.82 3.28,0.35 3.97,1.89 3.77,8.36 157.57,3.32 175.97,2.98 9,-25.75 8.07,-235.03 1.65,-265.51 -232.48,-10.92 -186.38,-13.59 -186.32,102.69z"/>
      <path class="fil14" d="M3802.71 15663.71l111.62 -1.1 2.82 200.96 -111.51 3.32c-8.65,-31.48 -5.32,-165.68 -2.93,-203.18zm-33.14 -30.06c-10.02,24.92 -11.46,234.43 0.57,265.05l177.09 -1.73c9.91,-25.22 6.74,-229.04 1.31,-263.47 -38.81,-9.42 -146.53,-10.03 -178.97,0.15z"/>
      <path class="fil14" d="M4623.16 15665.84l114.14 0.6 -2 200.28 -114.99 -0.48 2.85 -200.4zm-39.05 -1.37l1.17 232.94c18.39,3.15 167.56,8.36 180.81,-4.12 16.1,-15.16 6.62,-218.45 4.74,-258.5l-144.83 -4.69c-38.87,-0.15 -42.09,-0.45 -41.89,34.37z"/>
      <path class="fil14" d="M1218.07 17958.93l107.86 1.07 -1.67 200.05 -110.1 -0.59 3.91 -200.53zm-38.63 -28.31c-9.08,53.43 -1.12,152.42 -1.79,211.37 -0.69,60.06 -1.98,50.61 65.72,49.88 33.25,-0.35 87.28,6.48 111.44,-5.44 15.15,-12.92 7.23,-237.23 3.98,-257.35 -33.08,-4.48 -150.51,-6.7 -179.35,1.54z"/>
      <path class="fil14" d="M-201.9 17961.7l111.9 0.29c4.97,32.66 8.03,171.54 -1.88,198.54l-111.61 -0.83 1.59 -198zm148.21 228.02l1.28 -260.19 -186.3 -1.42c-8.78,58.85 -1.76,158.25 -2.25,219.47 -0.45,57.07 6.61,45.86 65.95,45.48 34.97,-0.22 94.15,3.77 121.32,-3.34z"/>
      <path class="fil14" d="M3469.9 17937.15l88.86 -2.75c25.72,1.44 15.85,-2.68 27.52,7.33 10.59,14.29 5.99,165.71 4.17,196.28 -24.74,6.69 -94.43,6.04 -120.4,0.71l-0.15 -201.57zm-31.44 -29c-8.02,35.35 -9.05,235.64 2.33,261.08 8.2,7.59 166.77,8.85 177.83,-1.26 12.5,-17.08 10.39,-226.24 4.56,-260.61 -28.12,-8.13 -156.66,-7.63 -184.72,0.79z"/>
      <path class="fil12" d="M5534.95 16197.28l-1.18 138.02c15.69,-12.64 153.08,-244.96 153.19,-266.89l-258.22 -0.2c6.93,4 52.87,41.21 65.75,50.29 38.66,27.28 40.36,20.09 40.46,78.78z"/>
      <path class="fil14" d="M3206.8 15663.39l110.65 -0.55c7.12,31.53 7.59,172.85 0.27,202.88 -138.37,6.56 -115.69,0.25 -114.86,-47.23 0.62,-36.2 -4.21,-125.99 3.94,-155.1zm-35 -31.72c-4.4,33.85 -6.08,241.99 2.66,267.24l177.38 -1.86c10.01,-25.39 8.48,-239.01 0.19,-261.51 -5.03,-5.54 -15.01,-6.93 -45.33,-6.82l-134.9 2.95z"/>
      <path class="fil14" d="M617.76 17960.86l110.34 0.66 -0.49 198.57 -113.59 -1.16 3.74 -198.07zm103.77 230.9c38.2,0.03 42.11,2.38 42.77,-32.93l-2.97 -230.46 -182.52 0.19 2.81 262.92 139.91 0.28z"/>
      <path class="fil12" d="M3470.05 18138.72c25.97,5.33 95.66,5.98 120.4,-0.71 1.82,-30.57 6.42,-181.99 -4.17,-196.28 -11.67,-10.01 -1.8,-5.89 -27.52,-7.33l-88.86 2.75 0.15 201.57z"/>
      <path class="fil12" d="M3206.8 15663.39c-8.15,29.11 -3.32,118.9 -3.94,155.1 -0.83,47.48 -23.51,53.79 114.86,47.23 7.32,-30.03 6.85,-171.35 -0.27,-202.88l-110.65 0.55z"/>
      <polygon class="fil12" points="6138.12,16919.49 6255.24,16919.79 6253.56,16712.34 6136.9,16713.56 "/>
      <polygon class="fil12" points="1990.99,16231.84 2108.27,16232.82 2108.3,16028.59 1993.17,16027.11 "/>
      <path class="fil12" d="M4187.24 15865.07c27.88,4.36 89.63,6.2 116.55,-1.68l-1.51 -194.56c-25.43,-7.45 -86.84,-5.19 -116.67,-1.59l1.63 197.83z"/>
      <path class="fil12" d="M228.37 18158.89l115.59 2.58 2.53 -199.31c-30.81,-3.38 -91.02,-5.67 -116.77,2.91l-1.35 193.82z"/>
      <path class="fil12" d="M3802.71 15663.71c-2.39,37.5 -5.72,171.7 2.93,203.18l111.51 -3.32 -2.82 -200.96 -111.62 1.1z"/>
      <path class="fil12" d="M-203.49 18159.7l111.61 0.83c9.91,-27 6.85,-165.88 1.88,-198.54l-111.9 -0.29 -1.59 198z"/>
      <polygon class="fil12" points="4620.31,15866.24 4735.3,15866.72 4737.3,15666.44 4623.16,15665.84 "/>
      <path class="fil12" d="M5535.62 16916.71c12.49,-25.43 7.19,-142.99 3.77,-179.43l-117.07 -0.69c-5.49,44.46 -1.31,103.62 -1.63,147.82 -0.26,35.14 -4.81,37.25 34,37.88 24.99,0.41 64.03,2.34 80.93,-5.58z"/>
      <polygon class="fil12" points="614.02,18158.93 727.61,18160.09 728.1,17961.52 617.76,17960.86 "/>
      <polygon class="fil12" points="1214.16,18159.46 1324.26,18160.05 1325.93,17960 1218.07,17958.93 "/>
      <path class="fil12" d="M4934.44 16919.62c22.21,2.1 40.41,1.76 60.63,1.92l41.43 -1.62c16.94,-3.9 2.43,2.31 12.86,-5.27 11.54,-23.58 5.92,-141.57 2.44,-175.3l-115.19 -2.32 -2.17 182.59z"/>
      <path class="fil17" d="M4136.17 17451.16c-11.5,36.57 -9.68,118.69 -0.76,156.8l30.36 6.5c7.36,0.61 23.01,0.18 31.12,0.14 26.53,-0.12 34.49,3.08 57.77,-8.25 5.03,-22.93 6.83,-110.32 4.98,-135.38 -2.48,-33.58 -14.2,-27.87 -50.23,-27.39 -24.4,0.32 -52.07,-2.67 -73.24,7.58z"/>
      <polygon class="fil12" points="5178.68,16920.64 5293.71,16921.67 5295.82,16737.05 5180.23,16735.63 "/>
      <path class="fil14" d="M3374.56 17494.32l84.7 -0.81 3.23 148.86 -87.03 -0.19 -0.9 -147.86zm24.02 180.23c20.75,0.03 48.45,1.22 68.28,0.29 38.22,-1.8 29,-11.88 28.69,-87.86 -0.5,-125.59 19.04,-124.32 -53.99,-124.41 -116.72,-0.2 -101.88,-17.37 -102.34,85.97 -0.6,137.72 -10.87,125.91 59.36,126.01z"/>
      <path class="fil14" d="M2210.48 15732.8c-11.75,0.61 -54.68,2.4 -64.12,0.94 -23.41,-3.61 -17.91,-9.59 -17.72,-35.75 0.28,-35.55 -0.46,-72.78 1.84,-110.27l82.45 0.76 -2.45 144.32zm32.76 23.32c10.37,-15.21 10.11,-180.13 -0.86,-193.82 -12.65,-13.14 -28.27,-8.48 -65.63,-8.37 -26.03,0.07 -52.09,-1.59 -77.36,3.04 -8.03,40.39 -2.9,123.02 -3.48,168.38 -0.59,46.31 5.49,40.23 56.04,39.5 22.59,-0.33 62.97,3.47 83.11,-4.03l8.18 -4.7z"/>
      <path class="fil12" d="M4199.78 15018.94l-208.46 1.04c0.33,17.68 75.06,114.52 94.04,139.97 12.95,17.32 21.27,34.35 39.14,45.15 1.81,-62.91 -10.83,-67.58 23.49,-111.61 9.37,-12.01 49.1,-59.82 51.79,-74.55z"/>
      <path class="fil12" d="M4366.75 15020.64c9.66,20.22 101.72,169.17 126.23,189.24 1.28,-40.78 -7.69,-81.65 16.35,-111.68 15.27,-19.07 45.9,-57.74 53.23,-78.92l-195.81 1.36z"/>
      <polygon class="fil12" points="3375.46,17642.18 3462.49,17642.37 3459.26,17493.51 3374.56,17494.32 "/>
      <path class="fil12" d="M2210.48 15732.8l2.45 -144.32 -82.45 -0.76c-2.3,37.49 -1.56,74.72 -1.84,110.27 -0.19,26.16 -5.69,32.14 17.72,35.75 9.44,1.46 52.37,-0.33 64.12,-0.94z"/>
      <polygon class="fil12" points="1263.14,16237.18 1379.77,16238.12 1381.59,16139.58 1263.98,16137.52 "/>
      <polygon class="fil12" points="3934.07,18137.73 4050.62,18138.89 4052.07,18041.12 3935.64,18039.17 "/>
      <polygon class="fil12" points="4203.03,18139.41 4316.06,18139.27 4318.2,18039.86 4205.07,18038.79 "/>
      <polygon class="fil12" points="1531.09,16234.81 1640.43,16234.89 1643.57,16136.7 1531.71,16136.43 "/>
     </g>
    </g>
   </g>
   <path class="fil3 str1" d="M7542.99 17162.86c-2904.53,-855.22 -5814.55,-2536.87 -6978.33,-5487.47 -542.29,550.83 483.3,6558.87 965.16,6672.87l6030.05 4.79 -16.88 -1190.19z"/>
   <g>
    <path class="fil18 str1" d="M12891.53 25597.16l-82.77 -287.17c434.76,-97.22 856.06,-224.43 1264.04,-381.26 412.14,-158.44 810.74,-347.14 1195.92,-565.77l183.33 287.17c-836.77,410.83 -1690.65,724.42 -2560.52,947.03z"/>
    <path class="fil18 str1" d="M16339.05 24167.44l-195.05 -228.78c597.34,-363.77 1159.54,-857.69 1673.39,-1536.98l242.46 140.52c-456.9,737.6 -1035.34,1271.31 -1720.8,1625.24z"/>
    <path class="fil18 str1" d="M18143.68 21548.55c320.25,-634.5 350.57,-1382.15 123.87,-2239.97l351.01 -117.33c258.18,939.85 224.4,1779.17 -165.19,2495.97l-309.69 -138.67z"/>
    <path class="fil18 str1" d="M18009.47 18540.58c-307.77,-616.29 -798.84,-1195.61 -1393.67,-1759.98l227.12 -181.31c584.96,566.84 1079.87,1146.98 1496.89,1738.62l-330.34 202.67z"/>
    <path class="fil18 str1" d="M13676.9 15007.39l128.51 -221.3c889.13,403.39 1643.59,808.76 2184.83,1224.6l-133.28 275.43c-611.09,-424.32 -1341.13,-842.02 -2180.06,-1278.73z"/>
    <polygon class="fil18 str1" points="12527.18,14206.8 10132.24,12873.77 10347.12,12559.78 12693.79,13907.36 "/>
    <path class="fil18 str1" d="M7072.39 10315.58l176.12 -181.98c631.49,614.63 1325.84,1179.77 2084.87,1691.84l-176.12 226.24c-809.89,-482.21 -1501.58,-1063.67 -2084.87,-1736.1z"/>
    <path class="fil18 str1" d="M6181.38 9392.6c-609,-735.13 -969.57,-1413.26 -1141.16,-2047.93l272.02 -100.35c295.97,806.68 669.05,1471.17 1128.24,1969.72l-259.1 178.56z"/>
    <path class="fil18 str1" d="M4375.68 5879.54c-307.46,-568.64 -461.76,-1376.27 -475.55,-2403.2l362.66 3.9c-71.93,634.51 72.79,1385.34 457.38,2291.31l-344.49 107.99z"/>
   </g>
  </g>
 </g>
</svg>
