<?xml version="1.0" encoding="UTF-8"?>
<!DOCTYPE svg PUBLIC "-//W3C//DTD SVG 1.1//EN" "http://www.w3.org/Graphics/SVG/1.1/DTD/svg11.dtd">
<!-- Creator: CorelDRAW (Evaluation Version) -->
<svg xmlns="http://www.w3.org/2000/svg" xml:space="preserve" width="210mm" height="297mm" version="1.1" style="shape-rendering:geometricPrecision; text-rendering:geometricPrecision; image-rendering:optimizeQuality; fill-rule:evenodd; clip-rule:evenodd"
viewBox="0 0 21000 29700"
 xmlns:xlink="http://www.w3.org/1999/xlink"
 xmlns:xodm="http://www.corel.com/coreldraw/odm/2003">
 <defs>
  <style type="text/css">
   <![CDATA[
    .str0 {stroke:black;stroke-width:100;stroke-miterlimit:22.9256}
    .str7 {stroke:#8AD0D7;stroke-width:100;stroke-miterlimit:22.9256}
    .str2 {stroke:black;stroke-width:200;stroke-miterlimit:22.9256}
    .str6 {stroke:#8AD0D7;stroke-width:300;stroke-miterlimit:22.9256}
    .str4 {stroke:black;stroke-width:75;stroke-miterlimit:22.9256}
    .str3 {stroke:black;stroke-width:150;stroke-miterlimit:22.9256}
    .str5 {stroke:black;stroke-width:20;stroke-miterlimit:22.9256}
    .str1 {stroke:black;stroke-width:10;stroke-miterlimit:22.9256}
    .fil5 {fill:none}
    .fil1 {fill:#183860}
    .fil2 {fill:#285795}
    .fil3 {fill:#285795}
    .fil9 {fill:#8AD0D7}
    .fil8 {fill:#ED5815}
    .fil4 {fill:#ED5815}
    .fil0 {fill:#FDFDFD}
    .fil6 {fill:#FEFFFE}
    .fil7 {fill:white}
   ]]>
  </style>
 </defs>
 <g id="Layer_x0020_1">
  <metadata id="CorelCorpID_0Corel-Layer"/>
  <polygon class="fil0 str0" points="10689.08,14218.01 10669.3,12618.78 12456.15,11294.3 14254.8,12599.33 14231.97,14198.95 12206.53,14216.41 "/>
  <polygon class="fil1 str1" points="10168.14,12990.29 9877.51,12705.02 12444.04,10903.39 15033.87,12745.05 14794.04,12990.57 12456.17,11294.31 "/>
  <path class="fil2 str1" d="M15447.62 24350.03l-8775.26 -309.86c-5763.85,-203.52 -9327.44,-7381.57 -2538.67,-11749.1 3144.03,-2022.69 5018.52,-2973.48 13346.74,-7188.45l730.95 47.4 64.03 662.2c-15327.24,9938.49 -13715.58,13270.47 -2827.79,18537.81z"/>
  <polygon class="fil3 str1" points="15342.17,12403.08 17252.27,11192.18 17232.9,14175.64 15342.17,14175.64 "/>
  <polygon class="fil3 str1" points="19473.66,12525.06 17563.56,11394.21 17582.93,14180.43 19473.66,14180.43 "/>
  <rect class="fil3 str1" x="11386.42" y="13084.08" width="820.12" height="1132.3"/>
  <polygon class="fil4 str1" points="13269.5,11001.06 13643.99,11001.06 13643.99,11756.68 12913.81,12571.61 13212.35,13072.63 12717.27,13725.02 13013.34,13115.25 12590.23,12514.65 13269.5,11756.68 "/>
  <polyline class="fil5 str2" points="15333.43,11995.87 15333.43,8905.44 16603.76,7916.53 17963.59,8905.44 17963.59,11173.42 "/>
  <polyline class="fil5 str2" points="18405.32,11567.97 18405.32,9384.53 19315.9,9952.41 19296.32,12116.27 "/>
  <polyline class="fil5 str2" points="14850.6,12143.04 14856.04,9409.03 13826.05,10211.38 13829.25,10881.57 "/>
  <polyline class="fil5 str3" points="11260.3,4535.79 11264.95,2562.33 12693.53,1256.88 14686.44,3102.29 14695.74,6152.32 "/>
  <polyline class="fil5 str3" points="7929.84,6772.37 7947.4,4741.49 9715.51,3179.47 11399.25,4738.59 11407.57,7773.02 "/>
  <polyline class="fil5 str3" points="5387.6,8366.64 5401.79,7050.01 6746.69,5769.9 8233.11,7047.57 8239.93,9616.23 "/>
  <polyline class="fil5 str3" points="3185.55,12445.04 3162.64,8804.58 4520.46,7558.99 5885.49,8840.87 5876.82,10623.19 "/>
  <line class="fil5 str3" x1="4520.47" y1="7558.98" x2="4501.96" y2= "11475.9" />
  <line class="fil5 str3" x1="6746.69" y1="5769.9" x2="6761.38" y2= "10204.99" />
  <line class="fil5 str3" x1="9715.51" y1="3179.47" x2="9695.5" y2= "8651.63" />
  <line class="fil5 str3" x1="12693.53" y1="1256.88" x2="12708.05" y2= "7161.04" />
  <polyline class="fil5 str0" points="3662.38,12162.62 3650.36,9010.34 4083.49,8661.42 4095.53,11837.76 "/>
  <polyline class="fil5 str0" points="5885.49,8840.86 5900.26,7253.74 6369.49,6928.88 6393.55,10357.89 "/>
  <polyline class="fil5 str0" points="8571.26,9190.82 8583.3,4931.65 8962.6,4779.4 8956.27,9022.39 "/>
  <polyline class="fil5 str0" points="11879.94,7566.56 11895.34,2553.76 12361.19,2248.61 12385.26,7386.09 "/>
  <rect class="fil6 str4" x="15805.15" y="9077.2" width="501.21" height="599.94"/>
  <rect class="fil6 str4" x="15805.15" y="10299.85" width="539.18" height="622.72"/>
  <rect class="fil6 str4" x="5082.21" y="9153.14" width="470.83" height="523.99"/>
  <rect class="fil6 str4" x="5074.66" y="9758.95" width="470.83" height="523.99"/>
  <rect class="fil6 str4" x="5069.77" y="10394.82" width="470.83" height="523.99"/>
  <rect class="fil6 str4" x="7096.16" y="7495.05" width="952.65" height="523.99"/>
  <rect class="fil6 str4" x="7088.53" y="8449.5" width="952.65" height="523.99"/>
  <polyline class="fil5 str4" points="7337.69,9837.73 7098.43,9837.73 7098.43,9313.74 8051.09,9313.74 8051.09,9633.66 "/>
  <rect class="fil6 str4" x="10057.18" y="4551.02" width="527.79" height="628.72"/>
  <rect class="fil6 str4" x="10056.33" y="5466.49" width="527.79" height="628.72"/>
  <rect class="fil6 str4" x="10048.68" y="6360.76" width="527.79" height="628.72"/>
  <rect class="fil6 str4" x="10063.96" y="7293.22" width="527.79" height="628.72"/>
  <rect class="fil6 str4" x="10690.73" y="5474.12" width="527.79" height="628.72"/>
  <rect class="fil6 str4" x="10683.08" y="6353.11" width="527.79" height="628.72"/>
  <rect class="fil6 str4" x="10706.01" y="7300.88" width="527.79" height="628.72"/>
  <polyline class="fil5 str4" points="14647.65,3709.32 13115.75,3705.97 13115.75,3043.92 14129.96,3043.92 "/>
  <rect class="fil6 str4" x="13125.45" y="3984.43" width="1564.67" height="682.42"/>
  <rect class="fil6 str4" x="13128.67" y="4924.05" width="1564.67" height="682.42"/>
  <polyline class="fil5 str4" points="14660.07,5889.12 13128.17,5892.48 13128.17,6554.52 14142.38,6554.52 "/>
  <path class="fil3 str1" d="M7639.64 15891.07l571.04 -1386.85 12413.62 40.8 27.2 1414.02c-1842.02,242.01 -2647.67,1295.12 -2596.93,3018.43l-1373.25 54.39c-40.13,-3966.86 -5466.99,-4232.17 -5450.16,-32.14l-1470.46 -8.66c101.66,-1585.6 -584.33,-2633.28 -2121.06,-3099.99z"/>
  <path class="fil0 str1" d="M8136.49 24091.86l-1464.13 -51.69c-830.3,-925.12 -1560.33,-1878.9 -2037.04,-2905.07l836.66 -30.71c620.2,1035.28 1613.63,2015.54 2664.51,2987.47z"/>
  <path class="fil0 str1" d="M3836.4 16280.81c-340.58,841.5 -366.59,1697.22 -185.35,2547.58l802.63 10.59c-284,-829.83 -304.97,-1671.77 -14.15,-2528.1l-603.13 -30.07z"/>
  <path class="fil0 str1" d="M6186.23 12863.46c-612.82,517.48 -1073.34,1038.59 -1403.72,1562.81l441.98 144.98c287.77,-552.69 744.42,-1063.23 1301.18,-1548.69l-339.44 -159.1z"/>
  <polygon class="fil0 str1" points="7890.5,11855.73 7526.31,11742.6 8972.47,10713.66 9219.97,10848.03 "/>
  <polygon class="fil0 str1" points="11684.44,8981.11 10344.36,9847.39 10591.86,10010.03 11917.8,9147.29 "/>
  <path class="fil0 str1" d="M13215.33 8399.89l-213.12 -137.5c402.16,-283.52 820.79,-543.56 1258.11,-776.85l192.49 130.63c-433.73,242.37 -849,501.13 -1237.48,783.72z"/>
  <polygon class="fil0 str1" points="15635.28,6967.63 15497.78,6791.19 16666.51,6073.9 16824.62,6209.11 "/>
  <g id="_888917224">
   <rect class="fil7 str1" x="8272.79" y="14812.8" width="774.83" height="530.59"/>
   <rect class="fil7 str1" x="9355.42" y="14804.72" width="777.6" height="530.59"/>
   <rect class="fil7 str1" x="10473.19" y="14799.69" width="741.13" height="530.59"/>
   <rect class="fil7 str1" x="11546.42" y="14806.52" width="741.12" height="530.59"/>
   <rect class="fil7 str1" x="12607.49" y="14806.52" width="785.67" height="530.59"/>
   <rect class="fil7 str1" x="13741.45" y="14806.52" width="720.87" height="530.59"/>
   <rect class="fil7 str1" x="14774.18" y="14799.69" width="765.43" height="530.59"/>
   <rect class="fil7 str1" x="15883.87" y="14799.69" width="757.32" height="530.59"/>
   <rect class="fil7 str1" x="16985.4" y="14799.69" width="749.26" height="530.59"/>
   <rect class="fil7 str1" x="18050.55" y="14799.69" width="765.43" height="530.59"/>
   <rect class="fil7 str1" x="19107.58" y="14810.85" width="789.72" height="530.59"/>
   <rect class="fil7 str1" x="20186.88" y="14810.92" width="394.85" height="530.59"/>
  </g>
  <g id="_888911952">
   <polygon class="fil8 str5" points="15706.03,4941.15 19930.76,3459.94 18495.73,7608.21 18259.75,5098.09 "/>
  </g>
  <g id="_888906208">
   <path class="fil5 str6" d="M8608.85 19416.65c1663.57,-667.52 3390.47,753.69 5424.75,574.46 3130.13,-567.13 4460.9,981.6 6623.56,794.22"/>
   <path class="fil5 str6" d="M9893.56 20570c4371.23,3253.56 7548.21,764.95 10782.45,3183.28"/>
  </g>
  <g id="_888863136">
   <ellipse class="fil9 str7" cx="12389.46" cy="20647.51" rx="293.46" ry="339.49"/>
   <ellipse class="fil9 str7" cx="14239.36" cy="21196.96" rx="293.46" ry="339.49"/>
   <ellipse class="fil9 str7" cx="18081.52" cy="21482.97" rx="293.46" ry="339.49"/>
   <ellipse class="fil9 str7" cx="9548.54" cy="20022.59" rx="121.06" ry="140.05"/>
   <ellipse class="fil9 str7" cx="10114.74" cy="20063.76" rx="121.06" ry="140.05"/>
   <ellipse class="fil9 str7" cx="10673.9" cy="20123.68" rx="121.06" ry="140.05"/>
   <ellipse class="fil9 str7" cx="11208.12" cy="20253.49" rx="121.06" ry="140.05"/>
   <ellipse class="fil9 str7" cx="11727.34" cy="20383.3" rx="121.06" ry="140.05"/>
   <ellipse class="fil9 str7" cx="13040.38" cy="20872.56" rx="121.06" ry="140.05"/>
   <ellipse class="fil9 str7" cx="13519.68" cy="21052.31" rx="121.06" ry="140.05"/>
   <ellipse class="fil9 str7" cx="15107.33" cy="21237.04" rx="121.06" ry="140.05"/>
   <ellipse class="fil9 str7" cx="15821.25" cy="21212.08" rx="121.06" ry="140.05"/>
   <ellipse class="fil9 str7" cx="16520.22" cy="21222.06" rx="121.06" ry="140.05"/>
   <ellipse class="fil9 str7" cx="17234.17" cy="21306.93" rx="121.06" ry="140.05"/>
   <ellipse class="fil9 str7" cx="18911.67" cy="21706.34" rx="121.06" ry="140.05"/>
   <ellipse class="fil9 str7" cx="19550.72" cy="21950.96" rx="121.06" ry="140.05"/>
   <ellipse class="fil9 str7" cx="20229.71" cy="22185.63" rx="121.06" ry="140.05"/>
  </g>
  <g id="_888846992">
   <rect class="fil6 str1" x="15786.45" y="12678.16" width="356.99" height="313.93"/>
   <rect class="fil6 str1" x="16321.97" y="12662.78" width="356.99" height="313.93"/>
   <rect class="fil6 str1" x="15798.78" y="13149.05" width="356.99" height="313.93"/>
   <rect class="fil6 str1" x="15792.62" y="13659.93" width="356.99" height="313.93"/>
   <rect class="fil6 str1" x="16334.28" y="13161.35" width="356.99" height="313.93"/>
   <rect class="fil6 str1" x="16340.44" y="13653.77" width="356.99" height="313.93"/>
  </g>
  <g id="_888835848">
   <rect class="fil6 str1" x="18075.05" y="13155.25" width="356.99" height="313.93"/>
   <rect class="fil6 str1" x="18628.33" y="13160.15" width="356.99" height="313.93"/>
   <rect class="fil6 str1" x="18633.24" y="13669.36" width="356.99" height="313.93"/>
   <rect class="fil6 str1" x="18079.95" y="13684.05" width="356.99" height="313.93"/>
  </g>
 </g>
</svg>
